<svg xmlns="http://www.w3.org/2000/svg" version="1.1" xmlns:xlink="http://www.w3.org/1999/xlink" width="1500" height="1500" viewBox="0 0 1500 1500"><rect width="1500" height="1500" x="0" y="0" id="background" stroke="transparent" fill="#000000"></rect><svg xml:space="preserve" width="1000" height="1000" data-version="2" data-id="lg_D4iJ4wWqGUarWQCO7N" viewBox="0 0 567 107" x="250" y="250"><rect width="100%" height="100%" fill="transparent"></rect><path fill="#ffffff" d="M244.635 7.02h22.57v9.3h-12.03v68.2h12.03v9.3h-33.36v-9.3h10.79V32.19l-23.19 54.19h-8.68l-23.19-54.19v52.33h10.79v9.3h-33.35v-9.3h12.02V16.57q-16.36.74-23.12 4.9-6.76 4.15-6.76 12.09 0 3.72 1.61 6.14 1.61 2.41 4.71 2.41 5.83 0 5.83-9.79h9.92q0 8.06-3.72 13.58-3.72 5.51-12.03 5.51-8.3 0-12.27-5.2-3.97-5.21-3.97-12.65 0-12.15 11.53-19.35 11.53-7.19 36.71-7.19h2.1l27.53 65.1zm39.68 32.86h-9.55v-8.06h20.09v53.94h10.79v8.06h-31v-8.06h9.67zm4.96-19.09q-2.73 0-4.46-1.99-1.74-1.98-1.74-4.77 0-2.79 1.92-4.9 1.92-2.11 4.65-2.11 2.73 0 4.47 1.99 1.73 1.98 1.73 4.77 0 2.79-1.92 4.9-1.92 2.11-4.65 2.11m30.26 70.55V8.88h-9.55V.82h20.09v37.82q7.31-8.06 18.78-8.06 11.47 0 17.73 9.12 6.27 9.11 6.27 23.18 0 14.08-7.82 23.13-7.81 9.05-22.69 9.05-10.79 0-22.81-3.72m38.75-44.76q-4.03-6.7-11.47-6.7t-12.09 5.83q-4.65 5.83-4.65 14.01v23.93q6.32 2.11 11.28 2.11 10.29 0 15.62-6.32 5.34-6.33 5.34-16.25t-4.03-16.61m71.36-6.7h-9.55v-8.06h20.09v54.56h10.17v5.21q-4.59 2.85-12.22 2.85-7.62 0-8.37-6.57-13.02 7.32-23.37 7.32-10.36 0-14.39-6.33-4.03-6.32-4.03-17.48v-31.5h-9.54v-8.06h20.08v39.56q0 7.19 1.86 10.85 1.86 3.66 8.56 3.66t20.71-7.44zm35.21 0h-10.78v-6.82l9.54-1.24h1.24q3.97-9.3 5.34-16.37h5.2v16.37h18.48v8.06h-18.48v38.07q0 4.22 1.43 6.08 1.43 1.86 4.9 1.86 3.47 0 9.3-2.36l4.09 7.07q-7.07 4.46-15.13 4.46t-11.59-4.21q-3.54-4.22-3.54-10.92zm44.89 46.07q-7.81-9.12-7.81-23.13t7.81-23.12q7.81-9.12 21.95-9.12t21.95 9.12q7.81 9.11 7.81 23.12 0 14.01-7.81 23.13-7.81 9.11-21.95 9.11t-21.95-9.11m7.81-39.62q-5.08 6.45-5.08 16.49 0 10.05 5.08 16.49 5.09 6.45 14.14 6.45t14.14-6.45q5.08-6.44 5.08-16.49 0-10.04-5.08-16.49-5.09-6.45-14.14-6.45t-14.14 6.45M17.412 52.782a50.959 50.959 0 0 1 4.526-2.05c10.07-4.004 23.538-6.188 37.867-6.188 14.329 0 27.797 2.184 37.867 6.187a49.745 49.745 0 0 1 4.768 2.172v-2.766c-10.058-4.926-25.418-8.08-42.635-8.08-17.083 0-32.335 3.105-42.393 7.97zm50.643.91h-16.21l-.242 1.783h16.695zm1.553 11.587H50.293l-.23 1.783h19.776zm-.776-5.8H51.069l-.242 1.784h18.248z"></path><path fill="#ffffff" d="M74.704 73.335H45.136L48.533 48.5h22.774zm-26.862-2.354H72.01l-2.767-20.14h-18.66zM42.2 65.582l2.063-15.481h-3.604l-2.063 15.481 1.456 3.337zm-5.339-23.671-1.25-11.89a4.186 4.186 0 0 0-4.149-3.677l-20.602-.012a4.186 4.186 0 0 0-4.173 3.798c0-1.42-.777 11.502-1.14 23.344l.023.485c.631 4.21 2.27 9.621 10.847 12.376 5.12 1.637 6.212-2.427 4.247-4.854-1.941-2.366-3.652-4.246-4.817-5.945-1.092-1.577-.873-6.103-.85-6.66a48.532 48.532 0 0 1 5.254-2.403 84.931 84.931 0 0 1 16.623-4.574"></path><path fill="#ffffff" d="M114.16 60.826a14.56 14.56 0 0 1-2.984 3.591c-.461 4.004-5.557 8.287-13.832 11.575-9.96 3.956-23.295 6.14-37.503 6.14-14.232 0-27.542-2.184-37.503-6.14C13.906 72.656 8.761 68.264 8.47 64.2a14.56 14.56 0 0 1-2.863-3.628c-.34.886 1.76 32.505 1.76 32.505h6.502L13.7 75.58c5.703 3.518 13.893 6.345 23.6 8.08l1.492 21.306h6.43l1.638-19.995a135.89 135.89 0 0 0 25.504.036l1.383 19.959h6.43l1.747-21.22c9.9-1.736 18.26-4.587 24.048-8.166l-.146 17.192h6.504s2.11-31.145 1.82-31.946"></path><path fill="#ffffff" d="m83.027 41.91 1.262-11.89a4.186 4.186 0 0 1 4.15-3.676l20.602-.012a4.186 4.186 0 0 1 4.173 3.798c0-1.42.777 11.502 1.14 23.344l-.023.485c-.643 4.21-2.281 9.621-10.847 12.376-5.12 1.637-6.212-2.427-4.247-4.854 1.93-2.366 3.652-4.246 4.817-5.945 1.092-1.577.874-6.103.85-6.66a48.532 48.532 0 0 0-5.266-2.403 84.931 84.931 0 0 0-16.61-4.574m-71.72-24.642L9.27 12.779l-2.05 4.478zm2.73-8.081 7.862 1.771 7.85-1.771v2.511a8.614 8.614 0 0 1-7.862 11.89 8.554 8.554 0 0 1-7.85-11.89z"></path><path fill="#ffffff" d="m8.616 6.531 13.31-3.033L35.187 6.53 21.95 9.528l-12-2.694v4.441H8.604V6.543zm101.48 10.726 2.05-4.478 2.039 4.478zm-2.718-8.081-7.886 1.771-7.838-1.771v2.511a8.614 8.614 0 0 0 7.862 11.89 8.554 8.554 0 0 0 7.862-11.89z"></path><path fill="#ffffff" d="M112.79 6.531 99.48 3.498 86.218 6.53l13.25 2.997 11.987-2.694v4.441h1.347z"></path></svg></svg>