<svg xmlns="http://www.w3.org/2000/svg" version="1.1" xmlns:xlink="http://www.w3.org/1999/xlink" width="1500" height="1500" viewBox="0 0 1500 1500"><rect width="1500" height="1500" x="0" y="0" id="background" stroke="transparent" fill="#ffffff"></rect><svg xml:space="preserve" width="1000" height="1000" data-version="2" data-id="lg_1O2nrCX1n9H5pxilwh" viewBox="0 0 560 437" x="250" y="250"><rect width="100%" height="100%" fill="transparent"></rect><rect width="190.923" height="464.402" x="-95.462" y="-232.201" fill="#8b8b8b" stroke="#111111" stroke-width="2" rx="127" ry="127" transform="matrix(-.5683 -.8426 .8426 -.5683 278.346 218.5)"></rect><path fill="#b4b4b4" d="m186.803 298.063 4.538 16.85a17.24 17.24 0 0 0 12.155 12.155l16.85 4.538-16.85 4.538A17.24 17.24 0 0 0 191.34 348.3l-4.538 16.85-4.538-16.85a17.24 17.24 0 0 0-12.155-12.155l-16.847-4.541 16.85-4.538a17.24 17.24 0 0 0 12.155-12.155zm39.19-28.303 3.3 12.254a12.536 12.536 0 0 0 8.839 8.838l12.253 3.3-12.253 3.3a12.536 12.536 0 0 0-8.839 8.84l-3.3 12.253-3.3-12.254a12.536 12.536 0 0 0-8.839-8.839l-12.251-3.302 12.254-3.3a12.536 12.536 0 0 0 8.838-8.839zm51.66-195.686 4.538 16.85a17.24 17.24 0 0 0 12.155 12.155l16.85 4.538-16.85 4.538a17.24 17.24 0 0 0-12.155 12.155l-4.538 16.85-4.538-16.85a17.24 17.24 0 0 0-12.155-12.155l-16.847-4.541 16.85-4.538a17.24 17.24 0 0 0 12.155-12.155z"></path><path fill="none" stroke="#b4b4b4" stroke-width="1.71" d="M43.62 171.332q3.81 4.73 8.75 12.2 4.95 7.47 6.9 9.94 1.96 2.47 3.14 2.47 1.19 0 2.12-1.34.92-1.33 6.79-10.3 5.87-8.96 9.69-13.64 3.81-4.69 6.07-4.79 2.27-.11 5.87-.11 3.61 0 8.45.21t6.44 2.52q1.59 2.32 1.9 6.54.62 10.82.62 28.69t-.93 28.17q-.2 2.47-1.85 4.43-1.65 1.96-4.53 1.96-6.29.1-13.96.1-7.67 0-12.2-.31-1.65-.1-2.94-1.29-1.29-1.18-1.39-3.14l-.62-16.99q-.1-2.48-1.08-2.78-.98-.31-1.8 1.33-5.46 9.69-13.6 21.63-1.96 2.99-5.15 2.99-3.19 0-5.25-2.99-3.61-5.15-12.26-21.83-.51-1.03-1.18-1.24-.67-.2-1.19.52-.51.72-.51 2.37l-.52 16.99q-.1 1.96-1.75 3.14-1.65 1.19-3.81 1.29h-10.2q-2.78-.1-4.48-1.96-1.7-1.85-2.01-4.22-.82-9.17-.82-28.48 0-19.31.52-28.38.3-4.32 1.95-6.69t5.87-2.37q21.63 0 23.38.31 1.76.31 5.57 5.05Zm87.13-5.36h27.61q4.32 0 5.71 2.16 1.4 2.17 1.86 8.91.46 6.75.46 26.16 0 19.42-.82 28.48-.31 2.37-2.11 4.23-1.81 1.85-4.79 2.06-5.87.41-13.6.41-7.72 0-14.62-.41-2.99-.21-4.79-2.06-1.81-1.86-2.12-4.23-.82-9.06-.82-28.48 0-19.41.46-26.16.47-6.74 1.86-8.91 1.39-2.16 5.71-2.16Zm89.61 42.23-.1 13.39q0 .93.62 1.6t1.65.67q6.28 0 10.35-2.48 4.07-2.47 4.07-7.77 0-5.31-4.23-7.37-3.39-1.64-7.41-1.64-1.03 0-2.06.1-2.89.2-2.89 3.5Zm-.1-28.32.1 8.44q0 1.96 2.37 1.96 10.41 0 10.41-5.87 0-6.8-9.27-6.8h-1.14q-2.47 0-2.47 2.27Zm-33.68-13.81q12.77-.41 31.93-.41t26.52.36q7.37.36 13.03 5.72 5.67 5.35 5.67 12.36 0 8.55-7.42 12.56-.72.42-.72.98 0 .57.72.78 5.36 1.44 9.01 6.18 3.66 4.73 3.66 11.22 0 8.14-6.28 14.73-6.29 6.59-19.26 7.16-12.98.57-18.75.57t-38.52-.31q-2.99 0-4.84-1.91-1.86-1.9-2.17-4.38-.82-9.06-.82-26.42 0-17.35.72-29.61.31-5.04 1.75-7.26 1.44-2.21 5.77-2.32Zm132.46 10.72-.21 9.37v19.88q0 4.32 2.68 6.69t6.28 2.37q3.61 0 6.23-2.37 2.63-2.37 2.63-6.69v-30.7q0-4.84 1.29-7.1 1.29-2.27 5.61-2.27h9.48q3.29 0 4.53 1.96 2.37 3.5 2.37 27.09 0 7.72-.21 11.84-.31 8.34-3.86 14.88-3.55 6.55-9.11 10.46-11.23 7.93-25.45 7.93-18.74 0-31-8.75-6.18-4.43-9.73-11.8-3.56-7.36-3.66-17.15-.1-4.84-.1-14.26 0-9.43.26-13.6.25-4.17 1.64-6.39 1.39-2.21 5.62-2.21h27.5q4.12 0 5.46 2.16 1.75 2.78 1.75 8.66Zm109.8 55q-.11 2.26-1.96 4.17-1.85 1.9-4.94 2.11-5.88.41-14.12.41-8.24 0-15.14-.41-3.09-.21-4.94-2.11-1.85-1.91-1.96-4.17-.31-15.66-.31-26.73t.11-16.22q0-3.92-3.51-3.92h-9.27q-2.16 0-3.5-1.03-1.34-1.03-1.49-3.6-.16-2.58-.16-5.36 0-2.78.16-4.79.15-2.01 1.65-3.09 1.49-1.08 3.24-1.08 13.39-.21 36.26-.21 22.86 0 32.75.21 1.75.1 3.25 1.13 1.49 1.03 1.64 3.04.16 2.01.16 4.69 0 2.68-.1 5.15-.31 4.63-5.05 4.63h-9.27q-3.5 0-3.5 3.61.31 12.98.31 23.48 0 10.51-.31 20.09Zm77.45 8.34q-12.46 0-22.55-3.24-10.1-3.25-16.38-8.71-6.28-5.46-9.58-12.2-3.3-6.75-3.3-14.06 0-7.32 3.35-14.06 3.35-6.75 9.58-12.21 6.23-5.46 16.33-8.75 10.09-3.3 22.14-3.3t21.32 2.99q9.27 2.99 14.94 8.14 11.53 10.5 11.53 24.92 0 7.31-3.14 14.32-3.14 7-8.96 12.72-5.82 5.72-14.99 9.37-9.16 3.66-20.29 4.07Zm20.4-40.02q0-4.89-3.51-8.54-3.5-3.66-10.66-3.66-7.15 0-11.38 3.81-4.22 3.81-4.22 9.27 0 5.46 4.43 8.76 4.43 3.29 10.66 3.29t10.45-4.02q4.23-4.01 4.23-8.91Z"></path><path fill="#b4b4b4" d="M43.62 171.332q3.81 4.73 8.75 12.2 4.95 7.47 6.9 9.94 1.96 2.47 3.14 2.47 1.19 0 2.12-1.34.92-1.33 6.79-10.3 5.87-8.96 9.69-13.64 3.81-4.69 6.07-4.79 2.27-.11 5.87-.11 3.61 0 8.45.21t6.44 2.52q1.59 2.32 1.9 6.54.62 10.82.62 28.69t-.93 28.17q-.2 2.47-1.85 4.43-1.65 1.96-4.53 1.96-6.29.1-13.96.1-7.67 0-12.2-.31-1.65-.1-2.94-1.29-1.29-1.18-1.39-3.14l-.62-16.99q-.1-2.48-1.08-2.78-.98-.31-1.8 1.33-5.46 9.69-13.6 21.63-1.96 2.99-5.15 2.99-3.19 0-5.25-2.99-3.61-5.15-12.26-21.83-.51-1.03-1.18-1.24-.67-.2-1.19.52-.51.72-.51 2.37l-.52 16.99q-.1 1.96-1.75 3.14-1.65 1.19-3.81 1.29h-10.2q-2.78-.1-4.48-1.96-1.7-1.85-2.01-4.22-.82-9.17-.82-28.48 0-19.31.52-28.38.3-4.32 1.95-6.69t5.87-2.37q21.63 0 23.38.31 1.76.31 5.57 5.05m87.13-5.36h27.61q4.32 0 5.71 2.16 1.4 2.17 1.86 8.91.46 6.75.46 26.16 0 19.42-.82 28.48-.31 2.37-2.11 4.23-1.81 1.85-4.79 2.06-5.87.41-13.6.41-7.72 0-14.62-.41-2.99-.21-4.79-2.06-1.81-1.86-2.12-4.23-.82-9.06-.82-28.48 0-19.41.46-26.16.47-6.74 1.86-8.91 1.39-2.16 5.71-2.16m89.61 42.23-.1 13.39q0 .93.62 1.6t1.65.67q6.28 0 10.35-2.48 4.07-2.47 4.07-7.77 0-5.31-4.23-7.37-3.39-1.64-7.41-1.64-1.03 0-2.06.1-2.89.2-2.89 3.5m-.1-28.32.1 8.44q0 1.96 2.37 1.96 10.41 0 10.41-5.87 0-6.8-9.27-6.8h-1.14q-2.47 0-2.47 2.27m-33.68-13.81q12.77-.41 31.93-.41t26.52.36q7.37.36 13.03 5.72 5.67 5.35 5.67 12.36 0 8.55-7.42 12.56-.72.42-.72.98 0 .57.72.78 5.36 1.44 9.01 6.18 3.66 4.73 3.66 11.22 0 8.14-6.28 14.73-6.29 6.59-19.26 7.16-12.98.57-18.75.57t-38.52-.31q-2.99 0-4.84-1.91-1.86-1.9-2.17-4.38-.82-9.06-.82-26.42 0-17.35.72-29.61.31-5.04 1.75-7.26 1.44-2.21 5.77-2.32m132.46 10.72-.21 9.37v19.88q0 4.32 2.68 6.69t6.28 2.37q3.61 0 6.23-2.37 2.63-2.37 2.63-6.69v-30.7q0-4.84 1.29-7.1 1.29-2.27 5.61-2.27h9.48q3.29 0 4.53 1.96 2.37 3.5 2.37 27.09 0 7.72-.21 11.84-.31 8.34-3.86 14.88-3.55 6.55-9.11 10.46-11.23 7.93-25.45 7.93-18.74 0-31-8.75-6.18-4.43-9.73-11.8-3.56-7.36-3.66-17.15-.1-4.84-.1-14.26 0-9.43.26-13.6.25-4.17 1.64-6.39 1.39-2.21 5.62-2.21h27.5q4.12 0 5.46 2.16 1.75 2.78 1.75 8.66m109.8 55q-.11 2.26-1.96 4.17-1.85 1.9-4.94 2.11-5.88.41-14.12.41-8.24 0-15.14-.41-3.09-.21-4.94-2.11-1.85-1.91-1.96-4.17-.31-15.66-.31-26.73t.11-16.22q0-3.92-3.51-3.92h-9.27q-2.16 0-3.5-1.03-1.34-1.03-1.49-3.6-.16-2.58-.16-5.36 0-2.78.16-4.79.15-2.01 1.65-3.09 1.49-1.08 3.24-1.08 13.39-.21 36.26-.21 22.86 0 32.75.21 1.75.1 3.25 1.13 1.49 1.03 1.64 3.04.16 2.01.16 4.69 0 2.68-.1 5.15-.31 4.63-5.05 4.63h-9.27q-3.5 0-3.5 3.61.31 12.98.31 23.48 0 10.51-.31 20.09m77.45 8.34q-12.46 0-22.55-3.24-10.1-3.25-16.38-8.71-6.28-5.46-9.58-12.2-3.3-6.75-3.3-14.06 0-7.32 3.35-14.06 3.35-6.75 9.58-12.21 6.23-5.46 16.33-8.75 10.09-3.3 22.14-3.3t21.32 2.99q9.27 2.99 14.94 8.14 11.53 10.5 11.53 24.92 0 7.31-3.14 14.32-3.14 7-8.96 12.72-5.82 5.72-14.99 9.37-9.16 3.66-20.29 4.07m20.4-40.02q0-4.89-3.51-8.54-3.5-3.66-10.66-3.66-7.15 0-11.38 3.81-4.22 3.81-4.22 9.27 0 5.46 4.43 8.76 4.43 3.29 10.66 3.29t10.45-4.02q4.23-4.01 4.23-8.91"></path><path fill="none" stroke="#b4b4b4" stroke-width="1.71" d="M43.62 166.232q3.81 4.74 8.75 12.21 4.95 7.47 6.9 9.94 1.96 2.47 3.14 2.47 1.19 0 2.12-1.34.92-1.34 6.79-10.3t9.69-13.65q3.81-4.68 6.07-4.78 2.27-.11 5.87-.11 3.61 0 8.45.21 4.84.2 6.44 2.52 1.59 2.32 1.9 6.54.62 10.82.62 28.69t-.93 28.17q-.2 2.47-1.85 4.43-1.65 1.95-4.53 1.95-6.29.11-13.96.11-7.67 0-12.2-.31-1.65-.1-2.94-1.29-1.29-1.18-1.39-3.14l-.62-17q-.1-2.47-1.08-2.78-.98-.31-1.8 1.34-5.46 9.68-13.6 21.63-1.96 2.99-5.15 2.99-3.19 0-5.25-2.99-3.61-5.15-12.26-21.83-.51-1.03-1.18-1.24-.67-.21-1.19.52-.51.72-.51 2.36l-.52 17q-.1 1.96-1.75 3.14-1.65 1.19-3.81 1.29h-10.2q-2.78-.1-4.48-1.96-1.7-1.85-2.01-4.22-.82-9.17-.82-28.48 0-19.31.52-28.38.3-4.32 1.95-6.69t5.87-2.37q21.63 0 23.38.31 1.76.31 5.57 5.04Zm87.13-5.35h27.61q4.32 0 5.71 2.16 1.4 2.16 1.86 8.91.46 6.75.46 26.16 0 19.42-.82 28.48-.31 2.37-2.11 4.23-1.81 1.85-4.79 2.06-5.87.41-13.6.41-7.72 0-14.62-.41-2.99-.21-4.79-2.06-1.81-1.86-2.12-4.23-.82-9.06-.82-28.48 0-19.41.46-26.16.47-6.75 1.86-8.91 1.39-2.16 5.71-2.16Zm89.61 42.23-.1 13.39q0 .93.62 1.59.62.67 1.65.67 6.28 0 10.35-2.47 4.07-2.47 4.07-7.77 0-5.31-4.23-7.37-3.39-1.65-7.41-1.65-1.03 0-2.06.11-2.89.2-2.89 3.5Zm-.1-28.33.1 8.45q0 1.96 2.37 1.96 10.41 0 10.41-5.87 0-6.8-9.27-6.8h-1.14q-2.47 0-2.47 2.26Zm-33.68-13.8q12.77-.41 31.93-.41t26.52.36q7.37.36 13.03 5.72 5.67 5.35 5.67 12.36 0 8.55-7.42 12.56-.72.41-.72.98 0 .57.72.77 5.36 1.45 9.01 6.18 3.66 4.74 3.66 11.23 0 8.14-6.28 14.73-6.29 6.59-19.26 7.16-12.98.56-18.75.56t-38.52-.3q-2.99 0-4.84-1.91-1.86-1.91-2.17-4.38-.82-9.06-.82-26.42 0-17.35.72-29.61.31-5.05 1.75-7.26 1.44-2.22 5.77-2.32Zm132.46 10.71-.21 9.38v19.88q0 4.32 2.68 6.69t6.28 2.37q3.61 0 6.23-2.37 2.63-2.37 2.63-6.69v-30.7q0-4.84 1.29-7.11 1.29-2.26 5.61-2.26h9.48q3.29 0 4.53 1.96 2.37 3.5 2.37 27.08 0 7.73-.21 11.85-.31 8.34-3.86 14.88-3.55 6.54-9.11 10.46-11.23 7.93-25.45 7.93-18.74 0-31-8.76-6.18-4.43-9.73-11.79-3.56-7.36-3.66-17.15-.1-4.84-.1-14.27 0-9.42.26-13.59.25-4.17 1.64-6.39 1.39-2.21 5.62-2.21h27.5q4.12 0 5.46 2.16 1.75 2.78 1.75 8.65Zm109.8 55.01q-.11 2.26-1.96 4.17-1.85 1.9-4.94 2.11-5.88.41-14.12.41-8.24 0-15.14-.41-3.09-.21-4.94-2.11-1.85-1.91-1.96-4.17-.31-15.66-.31-26.73 0-11.08.11-16.23 0-3.91-3.51-3.91h-9.27q-2.16 0-3.5-1.03-1.34-1.03-1.49-3.6-.16-2.58-.16-5.36 0-2.78.16-4.79.15-2.01 1.65-3.09 1.49-1.08 3.24-1.08 13.39-.21 36.26-.21 22.86 0 32.75.21 1.75.1 3.25 1.13 1.49 1.03 1.64 3.04.16 2.01.16 4.69 0 2.67-.1 5.15-.31 4.63-5.05 4.63h-9.27q-3.5 0-3.5 3.61.31 12.97.31 23.48t-.31 20.09Zm77.45 8.34q-12.46 0-22.55-3.25-10.1-3.24-16.38-8.7-6.28-5.46-9.58-12.21-3.3-6.74-3.3-14.05 0-7.32 3.35-14.06 3.35-6.75 9.58-12.21 6.23-5.46 16.33-8.75 10.09-3.3 22.14-3.3t21.32 2.99q9.27 2.98 14.94 8.13 11.53 10.51 11.53 24.93 0 7.31-3.14 14.32-3.14 7-8.96 12.72-5.82 5.71-14.99 9.37-9.16 3.66-20.29 4.07Zm20.4-40.02q0-4.89-3.51-8.55-3.5-3.65-10.66-3.65-7.15 0-11.38 3.81-4.22 3.81-4.22 9.27 0 5.46 4.43 8.75 4.43 3.3 10.66 3.3t10.45-4.02q4.23-4.01 4.23-8.91Z"></path><path fill="#333333" d="M43.62 166.232q3.81 4.74 8.75 12.21 4.95 7.47 6.9 9.94 1.96 2.47 3.14 2.47 1.19 0 2.12-1.34.92-1.34 6.79-10.3t9.69-13.65q3.81-4.68 6.07-4.78 2.27-.11 5.87-.11 3.61 0 8.45.21 4.84.2 6.44 2.52 1.59 2.32 1.9 6.54.62 10.82.62 28.69t-.93 28.17q-.2 2.47-1.85 4.43-1.65 1.95-4.53 1.95-6.29.11-13.96.11-7.67 0-12.2-.31-1.65-.1-2.94-1.29-1.29-1.18-1.39-3.14l-.62-17q-.1-2.47-1.08-2.78-.98-.31-1.8 1.34-5.46 9.68-13.6 21.63-1.96 2.99-5.15 2.99-3.19 0-5.25-2.99-3.61-5.15-12.26-21.83-.51-1.03-1.18-1.24-.67-.21-1.19.52-.51.72-.51 2.36l-.52 17q-.1 1.96-1.75 3.14-1.65 1.19-3.81 1.29h-10.2q-2.78-.1-4.48-1.96-1.7-1.85-2.01-4.22-.82-9.17-.82-28.48 0-19.31.52-28.38.3-4.32 1.95-6.69t5.87-2.37q21.63 0 23.38.31 1.76.31 5.57 5.04m87.13-5.35h27.61q4.32 0 5.71 2.16 1.4 2.16 1.86 8.91.46 6.75.46 26.16 0 19.42-.82 28.48-.31 2.37-2.11 4.23-1.81 1.85-4.79 2.06-5.87.41-13.6.41-7.72 0-14.62-.41-2.99-.21-4.79-2.06-1.81-1.86-2.12-4.23-.82-9.06-.82-28.48 0-19.41.46-26.16.47-6.75 1.86-8.91 1.39-2.16 5.71-2.16m89.61 42.23-.1 13.39q0 .93.62 1.59.62.67 1.65.67 6.28 0 10.35-2.47 4.07-2.47 4.07-7.77 0-5.31-4.23-7.37-3.39-1.65-7.41-1.65-1.03 0-2.06.11-2.89.2-2.89 3.5m-.1-28.33.1 8.45q0 1.96 2.37 1.96 10.41 0 10.41-5.87 0-6.8-9.27-6.8h-1.14q-2.47 0-2.47 2.26m-33.68-13.8q12.77-.41 31.93-.41t26.52.36q7.37.36 13.03 5.72 5.67 5.35 5.67 12.36 0 8.55-7.42 12.56-.72.41-.72.98 0 .57.72.77 5.36 1.45 9.01 6.18 3.66 4.74 3.66 11.23 0 8.14-6.28 14.73-6.29 6.59-19.26 7.16-12.98.56-18.75.56t-38.52-.3q-2.99 0-4.84-1.91-1.86-1.91-2.17-4.38-.82-9.06-.82-26.42 0-17.35.72-29.61.31-5.05 1.75-7.26 1.44-2.22 5.77-2.32m132.46 10.71-.21 9.38v19.88q0 4.32 2.68 6.69t6.28 2.37q3.61 0 6.23-2.37 2.63-2.37 2.63-6.69v-30.7q0-4.84 1.29-7.11 1.29-2.26 5.61-2.26h9.48q3.29 0 4.53 1.96 2.37 3.5 2.37 27.08 0 7.73-.21 11.85-.31 8.34-3.86 14.88-3.55 6.54-9.11 10.46-11.23 7.93-25.45 7.93-18.74 0-31-8.76-6.18-4.43-9.73-11.79-3.56-7.36-3.66-17.15-.1-4.84-.1-14.27 0-9.42.26-13.59.25-4.17 1.64-6.39 1.39-2.21 5.62-2.21h27.5q4.12 0 5.46 2.16 1.75 2.78 1.75 8.65m109.8 55.01q-.11 2.26-1.96 4.17-1.85 1.9-4.94 2.11-5.88.41-14.12.41-8.24 0-15.14-.41-3.09-.21-4.94-2.11-1.85-1.91-1.96-4.17-.31-15.66-.31-26.73 0-11.08.11-16.23 0-3.91-3.51-3.91h-9.27q-2.16 0-3.5-1.03-1.34-1.03-1.49-3.6-.16-2.58-.16-5.36 0-2.78.16-4.79.15-2.01 1.65-3.09 1.49-1.08 3.24-1.08 13.39-.21 36.26-.21 22.86 0 32.75.21 1.75.1 3.25 1.13 1.49 1.03 1.64 3.04.16 2.01.16 4.69 0 2.67-.1 5.15-.31 4.63-5.05 4.63h-9.27q-3.5 0-3.5 3.61.31 12.97.31 23.48t-.31 20.09m77.45 8.34q-12.46 0-22.55-3.25-10.1-3.24-16.38-8.7-6.28-5.46-9.58-12.21-3.3-6.74-3.3-14.05 0-7.32 3.35-14.06 3.35-6.75 9.58-12.21 6.23-5.46 16.33-8.75 10.09-3.3 22.14-3.3t21.32 2.99q9.27 2.98 14.94 8.13 11.53 10.51 11.53 24.93 0 7.31-3.14 14.32-3.14 7-8.96 12.72-5.82 5.71-14.99 9.37-9.16 3.66-20.29 4.07m20.4-40.02q0-4.89-3.51-8.55-3.5-3.65-10.66-3.65-7.15 0-11.38 3.81-4.22 3.81-4.22 9.27 0 5.46 4.43 8.75 4.43 3.3 10.66 3.3t10.45-4.02q4.23-4.01 4.23-8.91"></path></svg></svg>