<svg xmlns="http://www.w3.org/2000/svg" version="1.1" xmlns:xlink="http://www.w3.org/1999/xlink" width="1500" height="118" viewBox="0 0 1500 118"><svg xml:space="preserve" width="1500" height="118" data-version="2" data-id="lg_6ucQoR7RrXhHjpzeZw" viewBox="0 0 546 118" x="0" y="0"><rect width="100%" height="100%" fill="transparent"></rect><path d="m148.15 42.04-.85 3.12q-2.73-1.04-5.29-1.69-2.57-.65-5.79-.74-3.22-.1-5.69.81t-4.48 3.48q-2.02 2.56-2.67 6.72-.13.72 4.94.43 5.07-.3 9.88-.69 4.81-.39 6.63.59 6.44 5.72 9.04 10.59 1.3 2.34-1.11 6.76-3.05 5.53-8.84 8.13-10.2 4.68-22.36-3.45-4.94-3.31-9.94-8.77l1.95-.98q3.77 2.02 6.08 3.12 2.3 1.11 5.81 2.25 3.51 1.13 6.18 1.2 6.17.13 10.14-3.02 3.96-3.16 4.48-8.55.07-.59-4.68.16-4.74.75-9.55 1.33-4.81.59-7.28-.91-2.6-2.08-8.13-8.19-1.75-2.14-1.82-4.61-.06-2.47 1.63-5.01 1.69-2.53 4.16-4.55 2.47-2.01 5.82-3.31 3.34-1.3 6.66-1.3.84 0 3.18 1.07 2.34 1.07 6.47 3.22 4.13 2.14 5.43 2.79m15.34 14.56h-.07l-3.51-5.91q4.55-1.17 10.11-2.21t6.99-.98q1.43.07 5.72 4.26 4.29 4.19 5.78 6.4.52.78.52 5.24 0 4.45-.16 10.17t-.1 7.73l-8.06-1.88.07-3.32q-5.27 5.27-8.58 5.27-3.12-.07-7.93-5.92t-4.81-8.38q0-2.02 2.73-3.71t6.66-2.63q3.93-.94 6.99-1.46 3.05-.52 5.2-.72l.06-1.75q.07-3.12-3.31-3.38-3.12-.2-13.13 2.79h-.07l-.06.07h-.13l-.07.06h-.13l-.06.07h-.13l-.07.06h-.19l-.07.07h-.13zm3.18 16.32q.59.91 2.21 1.17 1.63.26 4.91-.88 3.28-1.14 7.12-4l.06-5.72q-17.16 5.01-14.3 9.43m35.04-28.54q-3.32-1.56-4.94-4.74.13-1.04 1.95-2.67 1.82-1.62 2.92-1.88 3.32 1.49 4.88 4.61-1.11 2.8-4.81 4.68m-4.23 3.97 8.13 1.82V81.3l-8.13-1.82zm19.11 4.55h-3.38l-1.95-4.55h5.33v-7.02l8 1.82v5.2h7.93l1.95 4.55h-9.88v10.4q0 1.75-.03 3.51-.04 1.75.19 3.31t.55 2.86q.33 1.3 1.11 2.08t1.88 1.04q1.11.26 2.83-.35 1.72-.62 3.93-2.05l1.76 2.01q-3.77 3.45-6.31 4.81-1.95 1.11-5.36-.35-3.41-1.47-5.98-4.1-2.57-2.63-2.57-4.58zm46.28 2.01q-4.29-2.92-8.9.91-3.84 3.25-5.14 8.65-1.43 6.17 2.21 9.29.46.39.98.72 2.6 1.43 5.36.65 2.76-.78 4.81-3.45 2.05-2.66 3.22-5.68 1.17-3.03.58-6.18-.58-3.15-3.12-4.91m6.5.52q1.89 1.69 2.93 4.07 1.04 2.37 1.2 4.84.16 2.47-.45 5-.62 2.54-1.86 4.75-1.23 2.21-3.08 3.93-1.86 1.72-4.07 2.6-2.21.88-4.9.68-2.7-.19-5.5-1.69-3.64-1.95-7.15-4.94-2.79-2.4-4.16-5.42-1.36-3.03-1.26-5.89.09-2.86 1.1-5.72t2.93-4.94q1.91-2.08 4.19-3.54 2.27-1.46 4.91-1.53 2.63-.06 5.1 1.11 6.3 3.31 10.07 6.69m33.02 9.3V48.41l8.13 1.82v31.14l-8.13-1.82V76.3q-5.2 5.33-9.62 5-2.08-.13-7.41-4.81t-5.65-6.5q-.26-1.69-.26-21.58l8.06 1.82q-.33 22.36.32 23.73 1.3 1.82 3.94 1.17 2.63-.65 5.85-3.71 3.21-3.05 4.77-6.69m51.03-22.69-.85 3.12q-2.73-1.04-5.29-1.69-2.57-.65-5.79-.74-3.22-.1-5.69.81t-4.48 3.48q-2.02 2.56-2.67 6.72-.13.72 4.94.43 5.07-.3 9.88-.69 4.81-.39 6.63.59 6.44 5.72 9.04 10.59 1.3 2.34-1.11 6.76-3.05 5.53-8.84 8.13-10.2 4.68-22.36-3.45-4.94-3.31-9.94-8.77l1.95-.98q3.77 2.02 6.08 3.12 2.3 1.11 5.81 2.25 3.51 1.13 6.18 1.2 6.17.13 10.14-3.02 3.96-3.16 4.48-8.55.07-.59-4.68.16-4.74.75-9.55 1.33-4.81.59-7.28-.91-2.6-2.08-8.13-8.19-1.75-2.14-1.82-4.61-.06-2.47 1.63-5.01 1.69-2.53 4.16-4.55 2.47-2.01 5.82-3.31 3.34-1.3 6.66-1.3.84 0 3.18 1.07 2.34 1.07 6.47 3.22 4.13 2.14 5.43 2.79m31.39 29.25q1.69-2.27 2.7-4.84 1.01-2.57 1.11-4.84.09-2.28-.39-4.32-.49-2.05-1.86-3.32-1.36-1.27-3.15-1.72-1.79-.46-4.39.39-2.6.84-5.52 2.99l-.13 18.39q1.17.78 2.99 1.04 1.82.26 4.32-.58 2.5-.85 4.32-3.19m-4.35 9.75q-1.5-.39-3.77-1.62-2.28-1.24-3.38-2.02v18.53l-8.13-1.82q-.19-43.23 0-44.14 4.1-1.17 6.54-1.65 2.43-.49 5.55-.65 3.12-.17 5.95.78 2.83.94 5.82 2.89 3.9 2.6 5.72 6.14 1.82 3.54 1.59 6.96-.23 3.41-1.75 6.76-1.53 3.34-3.87 5.72-2.34 2.37-5.1 3.54-2.77 1.17-5.17.58m23.01-47.77 8.12 1.82v18.07q6.05-5.79 10.47-5.46 2.08.13 7.31 5.17 5.23 5.03 5.56 6.85.26 1.69.26 21.58l-8.06-1.82q.39-22.29-.33-23.59-1.23-2.28-3.99-1.33-2.77.94-5.72 3.38-2.96 2.43-5.5 5.49V81.3l-8.12-1.82zm45.43 33.21 14.76-10.07q-4.68-2.99-7.96-2.21-3.29.78-5.04 4.06-1.76 3.28-1.76 8.22m6.57 2.54-5.07 3.7q1.82 2.21 4.09 2.73 2.28.52 4.78-.61 2.5-1.14 4.19-2.28 1.69-1.14 3.97-3.02l1.3 1.3 2.47 2.73 1.3 1.3q-5.66 4.16-9.56 5.56-3.9 1.39-7.73-.04-5.59-2.14-10.53-7.54-2.93-3.25-3.38-7.7-.46-4.45 1.14-8.29 1.59-3.83 4.94-6.53 3.34-2.7 7.31-2.7 2.6 0 7.7 3.35t8.48 6.53q-.06.2-5.16 4-5.11 3.8-10.24 7.51m22.81-20.67 8.13 1.82v4.81q4.74-7.48 8.06-7.48 1.62 0 5.46 1.66 3.83 1.66 6.43 3.41l-4.48 6.5q-4.03-2.99-6.99-3.28-2.96-.29-4.71 1.17-1.76 1.46-3.77 4.71V81.3l-8.13-1.82zm38.61 18.13 14.76-10.07q-4.68-2.99-7.96-2.21-3.29.78-5.04 4.06-1.76 3.28-1.76 8.22m6.57 2.54-5.07 3.7q1.82 2.21 4.09 2.73 2.28.52 4.78-.61 2.5-1.14 4.19-2.28 1.69-1.14 3.97-3.02l1.3 1.3 2.47 2.73 1.3 1.3q-5.66 4.16-9.56 5.56-3.9 1.39-7.73-.04-5.59-2.14-10.53-7.54-2.93-3.25-3.38-7.7-.46-4.45 1.14-8.29 1.59-3.83 4.94-6.53 3.34-2.7 7.31-2.7 2.6 0 7.7 3.35t8.48 6.53q-.06.2-5.16 4-5.11 3.8-10.24 7.51M40.748 108.238l10.604-2.073-.383-1.94-10.604 2.06zm-.635-3.223 10.616-2.06-.24-1.199v-.048l-.024-.084c-.095-.24-.215-.335-.503-.275l-9.73 1.88c-.347.073-.407.288-.359.576zm-3.355-11.67 2.948 8.65 10.184-1.976-.527-9.107v-.287c-.06-.72-.563-.779-1.258-.635l-.575.12.347 5.068c.06.887-1.078 1.054-1.282.18l-1.078-4.853-8.1 1.558q-1.198.227-.707 1.174zm41.41-55.812 4.23-5.213.06-.095c.395-.78.658-1.63.946-2.457v-.06a.24.24 0 0 0-.072-.203.24.24 0 0 0-.252-.024c-.778.479-1.593.922-2.276 1.51l.599.49-4.338 5.369-.107.539q-.12.635-.12 1.006a5.991 5.991 0 0 1 1.318-.862M55.186 13.94a11.982 11.982 0 0 0 2.864-2.073c.611-.599-.288-1.522-.91-.922a10.424 10.424 0 0 1-5.273 2.803c-.647.12-.659.887-.263 1.175q.131.107.36.143c1.689.24 3.606.3 5.451-.108.839-.18.563-1.437-.276-1.258q-.958.216-1.953.24m-23.34 8.387-.06.06c-.755.408-.132 1.558.623 1.139q2.432-1.318 4.469-3.068c.647-.563-.192-1.557-.839-.982l-.659.527.707-1.078c.455-.743-.659-1.414-1.102-.683a23.964 23.964 0 0 1-3.14 4.085m44.837-6.05c-.48-.72-1.558.011-1.078.718a11.383 11.383 0 0 1 1.94 7.717l-.203-.527c-.312-.803-1.522-.336-1.198.467.719 1.857 1.126 3.834.79 5.032-.239.827 1.007 1.175 1.247.36q.24-.935.12-2.061a1.198 1.198 0 0 0 .18-.36c.694-4.181.718-7.62-1.798-11.346M61.381 5.517c.85.096 1.006-1.199.144-1.294q-2.253-.252-4.577-.192a25.162 25.162 0 0 0-4.35-1.642c-.839-.24-1.174 1.007-.347 1.246q.958.24 1.845.588-1.318.143-2.636.383c-.839.156-.6 1.438.24 1.27a33.55 33.55 0 0 1 4.96-.551q2.876 1.438 5.248 3.559c.647.563 1.51-.396.863-.97q-1.606-1.427-3.439-2.565 1.03.036 2.037.168M41.826 7.805c.84-.168.587-1.438-.263-1.27l-.923.204a28.757 28.757 0 0 1 5.704-2.84c.802-.3.359-1.522-.456-1.222a28.757 28.757 0 0 0-9.106 5.356c-.635.575-.12 1.414.683 1.078q2.109-.85 4.361-1.306m14.103 13.42a16.775 16.775 0 0 0 4.601-3.966c.527-.671-.479-1.474-1.018-.803a14.978 14.978 0 0 1-7.058 4.913.6.6 0 0 0-.36.204.719.719 0 0 0-.143.515q.036.3.288.467.155.12.407.096c4.613.096 10.34-.839 13.672-5.404.515-.695-.528-1.462-1.043-.767-2.24 3.092-5.787 4.362-9.346 4.745m-23.233-7.021a.6.6 0 0 0-.192.36q-.036.31.168.526.192.204.48.24.203 0 .395-.144.839-.503 1.761-.887c.084.324.408.588.839.432q.79-.276 1.63-.455c.838-.18.575-1.438-.276-1.259l-.671.156c-.06-.36-.396-.67-.839-.515l-.072.012q1.318-1.21 2.816-2.157c.743-.455.06-1.557-.671-1.102a22.766 22.766 0 0 0-5.368 4.793m10.856 8.315.24-.192a31.153 31.153 0 0 0 3.786-3.21q2.013-.528 3.906-1.367c.79-.36.263-1.533-.527-1.186q-3.247 1.45-6.902 1.917 1.318-1.21 2.408-2.552c.552-.671-.455-1.498-.994-.827q-1.63 1.977-3.667 3.607-.227.18-.251.395c-.096.372.12.839.659.827q1.474-.072 2.935-.3-1.318 1.127-2.743 2.073c-5.38-.539-5.596 1.714-5.165 4.601.252 1.714.743 3.643.527 5.344-.12.947-.443 1.834-.718 2.732a10.39 10.39 0 0 0-.528 2.912c-.036 1.306.132 2.995.743 5.392.216.839-.659 1.234-1.15.539-.887-1.246-1.354-1.857-1.63-2.265l-.048-.071c-1.485-2.277-3.426-2.792-4.589-2.42-3.834 1.27 1.81 13.958 6.507 12.532a.719.719 0 0 1 .922.683c.048.875.432 6.35 3.151 10.041 2.061 2.792 5.069 4.242 7.945 5.943l.515.336c.263-.336.839-.42 1.102.084.288.55.42.79.563.97.3.384.851.803 1.378 1.03q.288.109.611.168 1.462.312 2.792.288a13.18 13.18 0 0 0 3.523-.455c.515-.228 1.078-.66 1.366-1.03.156-.18.287-.42.563-.96.263-.515.85-.43 1.114-.095q.24-.18.515-.336c2.876-1.701 5.872-3.151 7.945-5.943 2.707-3.678 3.103-9.166 3.15-10.04A.719.719 0 0 1 74.43 51c4.697 1.426 10.34-11.263 6.507-12.533-1.019-.323-2.636.036-4.026 1.666l-.408.527q-.084.096-.155.24l-.156.167-.216.288c-.36.48-.779 1.114-1.342 1.797 0 0-.264.48-.863.336-.479-.24-.455-.635-.3-1.258a16.775 16.775 0 0 0 .624-5.213l-.036-.323a23.964 23.964 0 0 0-.863-3.595 9.586 9.586 0 0 1 .036-5.428c1.45-5.703-1.462-6.314-4.757-5.99a22.766 22.766 0 0 1-9.633 5.595c-.803.24-1.234-.527-.623-1.09q.958-.899 1.869-1.965a.24.24 0 0 0 .036-.216.24.24 0 0 0-.3-.192l-.12.06-.06.036a28.757 28.757 0 0 1-3.055 1.845s-.982.48-2.636 1.079a39.711 39.711 0 0 1-6.698 1.761c-.839.144-1.174-.743-.443-1.198a31.153 31.153 0 0 0 3.175-2.145l1.078-.959q.12-.143.12-.263a.324.324 0 0 0-.323-.336q-.084 0-.156.024l-.072.036q-.922.432-1.857.767s-1.03.36-2.756.755c-1.69.383-4.074.803-6.83.935-.755.036-.946-.791-.251-1.09 2.025-.911 3.295-1.678 3.415-1.762q.623-.396 1.198-.839m-.515 43.926 1.054 9.777c.383 2.744 5.943 4.853 11.383 4.853s11.023-2.109 11.407-4.853l1.054-9.92q-1.042.778-2.276 1.51c-.959.562-3.427 1.784-4.122 2.587-1.474 1.726-4.098 1.941-6.207 1.941s-4.613-.215-6.087-1.94c-.695-.804-3.163-2.038-4.122-2.589q-1.114-.659-2.084-1.366m-3.331 23.856.479-16.175c.06-1.055 1.078-1.642 2.157-1.941l-.78-7.43c-3.486-3.09-5.044-6.865-5.511-12.377-5.775.743-12.198-13.3-6.59-15.145 1.318-.443 2.971-.084 4.41 1.078l-.18-.946-.024-.084q-.132-.635-.288-1.222l-.228.215-.275.264c-.312.264-.527.144-.444-.264q.276-1.39.168-2.827c-.515-1.498-1.102-2.888-1.701-4.374l-.012.072c-.12.48-.707.444-.755-.06-.144-1.75-.815-4.481-.995-5.236v-.048a13.18 13.18 0 0 1 .983-8.627l-.36-.024c-.407-.036-.467-.263-.12-.48q.648-.43 1.21-.922.288-.527.636-1.054a64.703 64.703 0 0 1 3.45-4.505l-.658.191q-1.115.336-2.205.78c-.407.167-.6-.157-.276-.444a28.757 28.757 0 0 1 7.501-4.697 10.784 10.784 0 0 1 3.211-1.63l-.647-.095c-.503-.072-.515-.66-.024-.755q3.511-.695 7.19-.468a43.135 43.135 0 0 1 9.825.168l.539.024q.12-.204.443-.18 2.181.264 4.326.875c5.512 1.342 7.74 4.337 8.148 8.088l-.024.096c-.36 2.252-3.092 4.505-4.23 6.758-.395.766.767 1.354 1.15.575q.515-.959 1.21-1.846c.216.468 1.019.564 1.223-.083.131-.432.599-1.965.922-2.708q.635-.947.923-2.073c2.6.06 4.313.347 5.631 1.869l.048.072c2.804 4.373 3.128 7.716 2.3 11.239a33.55 33.55 0 0 0-.634 4.625c-.024.503-.6.575-.743.084l-.096-.312-.827 1.99-.048.155-.24.72.72-.888.048-.048s.659-.659 1.869-1.353a14.378 14.378 0 0 0 3.726-2.84c.575-.707 1.582.12 1.007.815-1.498 1.845-1.63 4.409-2.9 6.374l-.036.06-3.02 3.726q.552 0 1.043.18c5.608 1.833-.827 15.888-6.59 15.157-.455 5.392-1.965 9.13-5.308 12.174l-.815 7.632c1.079.288 2.109.887 2.157 1.918.036.095.635 21.735.635 21.735.108.755-.6 1.102-1.282 1.102 0 0-16.631.048-19.123.036l.203 3.475q.348.36.527.899l.012.048q.06.203.072.323l.192 1.019c.551.095.695.874.24 1.174l.383 2.037c.54.096.695.886.24 1.174l.395 2.085c.132.683-.168 1.222-.695 1.51q-.383.215-.898.659 1.845.072 3.738.083c.347 0 .647.3.647.648v4.373c0 .85-1.294.85-1.294 0v-3.738a98.252 98.252 0 0 1-18.944-1.906v3.535c0 .863-1.294.863-1.294 0v-4.337c0-.444.348-.72.78-.635q2.156.479 4.516.85l-.12-.575c-.539-.096-.682-.875-.215-1.174l-.408-2.037c-.539-.108-.682-.887-.215-1.174l-.24-1.234q-.12-.588.072-1.079l-.024-.06-3.115-9.118c-.707-1.39-.072-2.684 1.605-3.02zm23.94-51.163a4.553 4.553 0 0 0-2.78 1.87c-.527.814-1.738.023-1.222-.78a6.23 6.23 0 0 1 5.272-2.683c2.252 0 4.23 1.054 5.272 2.684.527.802-.695 1.593-1.21.778a4.553 4.553 0 0 0-2.876-1.893 1.917 1.917 0 1 1-2.456.024m1.318-6.542c3.654-.072 6.71 1.654 6.745 2.696.084 1.75-.167 1.222-1.581.683a13.18 13.18 0 0 0-9.993.204c-1.414.599-1.666 1.126-1.582-.611.048-1.03 2.96-2.9 6.423-2.96m-17.818 6.554q.635.551.66 1.438a1.917 1.917 0 1 1-3.116-1.462 4.553 4.553 0 0 0-2.876 1.893c-.515.815-1.737.036-1.222-.779a6.23 6.23 0 0 1 5.272-2.683 6.23 6.23 0 0 1 5.272 2.683c.528.815-.683 1.594-1.198.78a4.553 4.553 0 0 0-2.792-1.87M45.84 32.62c3.451.072 6.363 1.941 6.41 2.96.085 1.749-.167 1.21-1.58.623a13.18 13.18 0 0 0-9.994-.204c-1.414.54-1.665 1.066-1.582-.683.048-1.043 3.104-2.756 6.734-2.696m8.424 6.878a16.775 16.775 0 0 1 2.468 0c.863.072.755 1.354-.108 1.294a14.378 14.378 0 0 0-2.252 0c-.863.06-.959-1.222-.12-1.294m-3.451 11.275.228-.204c.754-.551 1.677-.443 2.444.12.335.251.707.431 1.87.431 1.161 0 1.545-.18 1.88-.431.78-.587 1.99-.695 2.672.084.587.635-.36 1.51-.958.874-.324-.24-.66-.131-.947.084l-.084.06-.108.096c-.754.575-1.366 1.174-2.432 1.174-1.066 0-1.677-.599-2.444-1.174l-.228-.156c-.323-.251-.623-.323-.947-.084-.575.635-1.533-.24-.958-.874m8.052-4.434q.539.611 1.078.827c.815.312.336 1.522-.467 1.198q-.887-.347-1.606-1.198c-.55-.659.444-1.486.995-.839m-6.566.84q-.72.838-1.606 1.197c-.803.312-1.282-.898-.48-1.21q.552-.216 1.091-.827c.563-.659 1.558.168.995.84M30.55 41.438c1.798-.444 3.547 1.545 4.434 3.822.084.168.862 1.977-.36 2.073-.551.048-1.186-.6-1.402-1.378-.143-.491-.084-.935.12-1.198-.839-1.534-1.905-2.205-2.48-2.061-.839.204-1.15-1.055-.312-1.258m49.402 0c.839.203.527 1.462-.3 1.258-.587-.144-1.653.539-2.492 2.073.216.251.276.695.12 1.198-.216.779-.839 1.414-1.402 1.366-1.21-.096-.443-1.893-.36-2.073.9-2.277 2.637-4.266 4.434-3.822m-15.121 12.64c-.66.18-.935-.802-.276-.982 1.402-.395 2.804 1.019 2.948 2.325.072.67-.947.79-1.019.12-.072-.72-.898-1.678-1.653-1.462m-19.052 0c-.766-.216-1.593.755-1.677 1.45-.06.683-1.078.563-1.007-.108.144-1.318 1.558-2.72 2.948-2.325.659.18.383 1.162-.264.983m15.397 3.45q-1.066.108-2.432.144c-.12 0-1.462.06-3.379.072a100.454 100.454 0 0 1-3.403-.072q-1.39-.048-2.444-.143.599.67 1.162 1.234c.54.563 1.893 1.102 4.673 1.102 2.9 0 4.122-.647 4.757-1.198q.503-.503 1.078-1.138m3.63-.887q-.73.3-1.425.48l-.06.071c-2.816 2.6-3.247 4.565-7.968 4.565-4.72 0-5.152-1.965-7.968-4.553l-.06-.084q-.707-.192-1.426-.48c-.803-.323-.323-1.52.48-1.197 1.713.683 3.031.85 5.631.934a97.054 97.054 0 0 0 6.674 0c2.612-.084 3.93-.24 5.632-.934.814-.324 1.294.874.49 1.198m15.026 19.543c5.176 1.953 7.034 2.588 14.415 5.415 2 .767 6.35 8.747 10.304 18.38 0 0 .515 1.223.683 1.69.18.563.3 1.103.192 1.462l-.084.24c-2.78 7.117-12.078 10.508-24.827 12.042L78.66 78.27c-.144-1.893-.527-2.348-.79-2.504q-.157-.12.047-.144.455 0 1.93.564m-48.708 0a7.19 7.19 0 0 1 1.93-.564c.12 0 .18.072.047.144-.275.144-.647.6-.79 2.492l-1.87 37.157C17.707 113.882 8.41 110.49 5.63 103.374l-.072-.24c-.12-.36 0-.91.192-1.462.155-.467.683-1.69.683-1.69 3.942-9.62 8.291-17.613 10.292-18.38 7.381-2.827 9.238-3.462 14.414-5.415"></path></svg></svg>