<svg xmlns="http://www.w3.org/2000/svg" xmlns:xlink="http://www.w3.org/1999/xlink" contentStyleType="text/css" height="1014px" preserveAspectRatio="none" style="width:525px;height:1014px;background:#FFFFFF;" version="1.1" viewBox="0 0 525 1014" width="525px" zoomAndPan="magnify"><defs/><g><!--class Users--><g id="elem_Users"><rect codeLine="7" fill="#FFFFFF" height="162.0781" id="Users" rx="2.5" ry="2.5" style="stroke:#666666;stroke-width:0.5;" width="153.4287" x="185.5" y="7"/><ellipse cx="238.3623" cy="23" fill="#ADD1B2" rx="11" ry="11" style="stroke:#181818;stroke-width:1;"/><path d="M241.3311,28.6406 Q240.7529,28.9375 240.1123,29.0781 Q239.4717,29.2344 238.7686,29.2344 Q236.2686,29.2344 234.9404,27.5938 Q233.6279,25.9375 233.6279,22.8125 Q233.6279,19.6875 234.9404,18.0313 Q236.2686,16.375 238.7686,16.375 Q239.4717,16.375 240.1123,16.5313 Q240.7686,16.6875 241.3311,16.9844 L241.3311,19.7031 Q240.7061,19.125 240.1123,18.8594 Q239.5186,18.5781 238.8936,18.5781 Q237.5498,18.5781 236.8623,19.6563 Q236.1748,20.7188 236.1748,22.8125 Q236.1748,24.9063 236.8623,25.9844 Q237.5498,27.0469 238.8936,27.0469 Q239.5186,27.0469 240.1123,26.7813 Q240.7061,26.5 241.3311,25.9219 L241.3311,28.6406 Z " fill="#000000"/><text fill="#000000" font-family="sans-serif" font-size="14" lengthAdjust="spacing" textLength="39.2041" x="258.8623" y="27.8467">Users</text><line style="stroke:#666666;stroke-width:0.5;" x1="186.5" x2="337.9287" y1="39" y2="39"/><ellipse cx="196.5" cy="52.6484" fill="none" rx="3" ry="3" style="stroke:#038048;stroke-width:1;"/><text fill="#000000" font-family="sans-serif" font-size="14" lengthAdjust="spacing" textLength="111.5078" x="205.5" y="55.9951">id: Integer &#171;PK&#187;</text><line style="stroke:#666666;stroke-width:1;" x1="186.5" x2="337.9287" y1="63.2969" y2="63.2969"/><text fill="#000000" font-family="sans-serif" font-size="14" lengthAdjust="spacing" textLength="125.6377" x="191.5" y="80.292">username : String</text><text fill="#000000" font-family="sans-serif" font-size="14" lengthAdjust="spacing" textLength="122.1104" x="191.5" y="96.5889">password : String</text><text fill="#000000" font-family="sans-serif" font-size="14" lengthAdjust="spacing" textLength="123.6826" x="191.5" y="112.8857">full_name : String</text><text fill="#000000" font-family="sans-serif" font-size="14" lengthAdjust="spacing" textLength="141.4287" x="191.5" y="129.1826">qualification : String</text><text fill="#000000" font-family="sans-serif" font-size="14" lengthAdjust="spacing" textLength="73.418" x="191.5" y="145.4795">dob : Date</text><text fill="#000000" font-family="sans-serif" font-size="14" lengthAdjust="spacing" textLength="112.8613" x="191.5" y="161.7764">active : Boolean</text></g><!--class Roles--><g id="elem_Roles"><rect codeLine="18" fill="#FFFFFF" height="96.8906" id="Roles" rx="2.5" ry="2.5" style="stroke:#666666;stroke-width:0.5;" width="145.2393" x="373.5" y="39.5"/><ellipse cx="422.8247" cy="55.5" fill="#ADD1B2" rx="11" ry="11" style="stroke:#181818;stroke-width:1;"/><path d="M425.7935,61.1406 Q425.2153,61.4375 424.5747,61.5781 Q423.9341,61.7344 423.231,61.7344 Q420.731,61.7344 419.4028,60.0938 Q418.0903,58.4375 418.0903,55.3125 Q418.0903,52.1875 419.4028,50.5313 Q420.731,48.875 423.231,48.875 Q423.9341,48.875 424.5747,49.0313 Q425.231,49.1875 425.7935,49.4844 L425.7935,52.2031 Q425.1685,51.625 424.5747,51.3594 Q423.981,51.0781 423.356,51.0781 Q422.0122,51.0781 421.3247,52.1563 Q420.6372,53.2188 420.6372,55.3125 Q420.6372,57.4063 421.3247,58.4844 Q422.0122,59.5469 423.356,59.5469 Q423.981,59.5469 424.5747,59.2813 Q425.1685,59 425.7935,58.4219 L425.7935,61.1406 Z " fill="#000000"/><text fill="#000000" font-family="sans-serif" font-size="14" lengthAdjust="spacing" textLength="38.0898" x="443.3247" y="60.3467">Roles</text><line style="stroke:#666666;stroke-width:0.5;" x1="374.5" x2="517.7393" y1="71.5" y2="71.5"/><ellipse cx="384.5" cy="85.1484" fill="none" rx="3" ry="3" style="stroke:#038048;stroke-width:1;"/><text fill="#000000" font-family="sans-serif" font-size="14" lengthAdjust="spacing" textLength="111.5078" x="393.5" y="88.4951">id: Integer &#171;PK&#187;</text><line style="stroke:#666666;stroke-width:1;" x1="374.5" x2="517.7393" y1="95.7969" y2="95.7969"/><text fill="#000000" font-family="sans-serif" font-size="14" lengthAdjust="spacing" textLength="95.1016" x="379.5" y="112.792">name : String</text><text fill="#000000" font-family="sans-serif" font-size="14" lengthAdjust="spacing" textLength="133.2393" x="379.5" y="129.0889">description : String</text></g><!--class Subjects--><g id="elem_Subjects"><rect codeLine="25" fill="#FFFFFF" height="129.4844" id="Subjects" rx="2.5" ry="2.5" style="stroke:#666666;stroke-width:0.5;" width="165.4121" x="111.5" y="229"/><ellipse cx="160.1411" cy="245" fill="#ADD1B2" rx="11" ry="11" style="stroke:#181818;stroke-width:1;"/><path d="M163.1099,250.6406 Q162.5317,250.9375 161.8911,251.0781 Q161.2505,251.2344 160.5474,251.2344 Q158.0474,251.2344 156.7192,249.5938 Q155.4067,247.9375 155.4067,244.8125 Q155.4067,241.6875 156.7192,240.0313 Q158.0474,238.375 160.5474,238.375 Q161.2505,238.375 161.8911,238.5313 Q162.5474,238.6875 163.1099,238.9844 L163.1099,241.7031 Q162.4849,241.125 161.8911,240.8594 Q161.2974,240.5781 160.6724,240.5781 Q159.3286,240.5781 158.6411,241.6563 Q157.9536,242.7188 157.9536,244.8125 Q157.9536,246.9063 158.6411,247.9844 Q159.3286,249.0469 160.6724,249.0469 Q161.2974,249.0469 161.8911,248.7813 Q162.4849,248.5 163.1099,247.9219 L163.1099,250.6406 Z " fill="#000000"/><text fill="#000000" font-family="sans-serif" font-size="14" lengthAdjust="spacing" textLength="59.6299" x="180.6411" y="249.8467">Subjects</text><line style="stroke:#666666;stroke-width:0.5;" x1="112.5" x2="275.9121" y1="261" y2="261"/><ellipse cx="122.5" cy="274.6484" fill="none" rx="3" ry="3" style="stroke:#038048;stroke-width:1;"/><text fill="#000000" font-family="sans-serif" font-size="14" lengthAdjust="spacing" textLength="111.5078" x="131.5" y="277.9951">id: Integer &#171;PK&#187;</text><line style="stroke:#666666;stroke-width:1;" x1="112.5" x2="275.9121" y1="285.2969" y2="285.2969"/><text fill="#000000" font-family="sans-serif" font-size="14" lengthAdjust="spacing" textLength="95.1016" x="117.5" y="302.292">name : String</text><text fill="#000000" font-family="sans-serif" font-size="14" lengthAdjust="spacing" textLength="122.3975" x="117.5" y="318.5889">description : Text</text><text fill="#000000" font-family="sans-serif" font-size="14" lengthAdjust="spacing" textLength="141.7842" x="117.5" y="334.8857">created_by : Integer</text><text fill="#000000" font-family="sans-serif" font-size="14" lengthAdjust="spacing" textLength="153.4121" x="117.5" y="351.1826">created_at : Datetime</text></g><!--class Chapters--><g id="elem_Chapters"><rect codeLine="34" fill="#FFFFFF" height="129.4844" id="Chapters" rx="2.5" ry="2.5" style="stroke:#666666;stroke-width:0.5;" width="165.4121" x="108.5" y="418"/><ellipse cx="155.3228" cy="434" fill="#ADD1B2" rx="11" ry="11" style="stroke:#181818;stroke-width:1;"/><path d="M158.2915,439.6406 Q157.7134,439.9375 157.0728,440.0781 Q156.4321,440.2344 155.729,440.2344 Q153.229,440.2344 151.9009,438.5938 Q150.5884,436.9375 150.5884,433.8125 Q150.5884,430.6875 151.9009,429.0313 Q153.229,427.375 155.729,427.375 Q156.4321,427.375 157.0728,427.5313 Q157.729,427.6875 158.2915,427.9844 L158.2915,430.7031 Q157.6665,430.125 157.0728,429.8594 Q156.479,429.5781 155.854,429.5781 Q154.5103,429.5781 153.8228,430.6563 Q153.1353,431.7188 153.1353,433.8125 Q153.1353,435.9063 153.8228,436.9844 Q154.5103,438.0469 155.854,438.0469 Q156.479,438.0469 157.0728,437.7813 Q157.6665,437.5 158.2915,436.9219 L158.2915,439.6406 Z " fill="#000000"/><text fill="#000000" font-family="sans-serif" font-size="14" lengthAdjust="spacing" textLength="63.2666" x="175.8228" y="438.8467">Chapters</text><line style="stroke:#666666;stroke-width:0.5;" x1="109.5" x2="272.9121" y1="450" y2="450"/><ellipse cx="119.5" cy="463.6484" fill="none" rx="3" ry="3" style="stroke:#038048;stroke-width:1;"/><text fill="#000000" font-family="sans-serif" font-size="14" lengthAdjust="spacing" textLength="111.5078" x="128.5" y="466.9951">id: Integer &#171;PK&#187;</text><line style="stroke:#666666;stroke-width:1;" x1="109.5" x2="272.9121" y1="474.2969" y2="474.2969"/><text fill="#000000" font-family="sans-serif" font-size="14" lengthAdjust="spacing" textLength="95.1016" x="114.5" y="491.292">name : String</text><text fill="#000000" font-family="sans-serif" font-size="14" lengthAdjust="spacing" textLength="122.3975" x="114.5" y="507.5889">description : Text</text><text fill="#000000" font-family="sans-serif" font-size="14" lengthAdjust="spacing" textLength="134.4971" x="114.5" y="523.8857">subject_id : Integer</text><text fill="#000000" font-family="sans-serif" font-size="14" lengthAdjust="spacing" textLength="153.4121" x="114.5" y="540.1826">created_at : Datetime</text></g><!--class Quizzes--><g id="elem_Quizzes"><rect codeLine="43" fill="#FFFFFF" height="162.0781" id="Quizzes" rx="2.5" ry="2.5" style="stroke:#666666;stroke-width:0.5;" width="178.7695" x="97.5" y="607"/><ellipse cx="155.4414" cy="623" fill="#ADD1B2" rx="11" ry="11" style="stroke:#181818;stroke-width:1;"/><path d="M158.4102,628.6406 Q157.832,628.9375 157.1914,629.0781 Q156.5508,629.2344 155.8477,629.2344 Q153.3477,629.2344 152.0195,627.5938 Q150.707,625.9375 150.707,622.8125 Q150.707,619.6875 152.0195,618.0313 Q153.3477,616.375 155.8477,616.375 Q156.5508,616.375 157.1914,616.5313 Q157.8477,616.6875 158.4102,616.9844 L158.4102,619.7031 Q157.7852,619.125 157.1914,618.8594 Q156.5977,618.5781 155.9727,618.5781 Q154.6289,618.5781 153.9414,619.6563 Q153.2539,620.7188 153.2539,622.8125 Q153.2539,624.9063 153.9414,625.9844 Q154.6289,627.0469 155.9727,627.0469 Q156.5977,627.0469 157.1914,626.7813 Q157.7852,626.5 158.4102,625.9219 L158.4102,628.6406 Z " fill="#000000"/><text fill="#000000" font-family="sans-serif" font-size="14" lengthAdjust="spacing" textLength="54.3867" x="175.9414" y="627.8467">Quizzes</text><line style="stroke:#666666;stroke-width:0.5;" x1="98.5" x2="275.2695" y1="639" y2="639"/><ellipse cx="108.5" cy="652.6484" fill="none" rx="3" ry="3" style="stroke:#038048;stroke-width:1;"/><text fill="#000000" font-family="sans-serif" font-size="14" lengthAdjust="spacing" textLength="111.5078" x="117.5" y="655.9951">id: Integer &#171;PK&#187;</text><line style="stroke:#666666;stroke-width:1;" x1="98.5" x2="275.2695" y1="663.2969" y2="663.2969"/><text fill="#000000" font-family="sans-serif" font-size="14" lengthAdjust="spacing" textLength="82.7695" x="103.5" y="680.292">title : String</text><text fill="#000000" font-family="sans-serif" font-size="14" lengthAdjust="spacing" textLength="137.6484" x="103.5" y="696.5889">chapter_id : Integer</text><text fill="#000000" font-family="sans-serif" font-size="14" lengthAdjust="spacing" textLength="166.7695" x="103.5" y="712.8857">date_of_quiz : Datetime</text><text fill="#000000" font-family="sans-serif" font-size="14" lengthAdjust="spacing" textLength="161.5195" x="103.5" y="729.1826">time_duration : Integer</text><text fill="#000000" font-family="sans-serif" font-size="14" lengthAdjust="spacing" textLength="102.2998" x="103.5" y="745.4795">remarks : Text</text><text fill="#000000" font-family="sans-serif" font-size="14" lengthAdjust="spacing" textLength="153.4121" x="103.5" y="761.7764">created_at : Datetime</text></g><!--class Questions--><g id="elem_Questions"><rect codeLine="54" fill="#FFFFFF" height="178.375" id="Questions" rx="2.5" ry="2.5" style="stroke:#666666;stroke-width:0.5;" width="196.1191" x="7" y="829"/><ellipse cx="65.854" cy="845" fill="#ADD1B2" rx="11" ry="11" style="stroke:#181818;stroke-width:1;"/><path d="M68.8228,850.6406 Q68.2446,850.9375 67.604,851.0781 Q66.9634,851.2344 66.2603,851.2344 Q63.7603,851.2344 62.4321,849.5938 Q61.1196,847.9375 61.1196,844.8125 Q61.1196,841.6875 62.4321,840.0313 Q63.7603,838.375 66.2603,838.375 Q66.9634,838.375 67.604,838.5313 Q68.2603,838.6875 68.8228,838.9844 L68.8228,841.7031 Q68.1978,841.125 67.604,840.8594 Q67.0103,840.5781 66.3853,840.5781 Q65.0415,840.5781 64.354,841.6563 Q63.6665,842.7188 63.6665,844.8125 Q63.6665,846.9063 64.354,847.9844 Q65.0415,849.0469 66.3853,849.0469 Q67.0103,849.0469 67.604,848.7813 Q68.1978,848.5 68.8228,847.9219 L68.8228,850.6406 Z " fill="#000000"/><text fill="#000000" font-family="sans-serif" font-size="14" lengthAdjust="spacing" textLength="69.9111" x="86.354" y="849.8467">Questions</text><line style="stroke:#666666;stroke-width:0.5;" x1="8" x2="202.1191" y1="861" y2="861"/><ellipse cx="18" cy="874.6484" fill="none" rx="3" ry="3" style="stroke:#038048;stroke-width:1;"/><text fill="#000000" font-family="sans-serif" font-size="14" lengthAdjust="spacing" textLength="111.5078" x="27" y="877.9951">id: Integer &#171;PK&#187;</text><line style="stroke:#666666;stroke-width:1;" x1="8" x2="202.1191" y1="885.2969" y2="885.2969"/><text fill="#000000" font-family="sans-serif" font-size="14" lengthAdjust="spacing" textLength="112.752" x="13" y="902.292">quiz_id : Integer</text><text fill="#000000" font-family="sans-serif" font-size="14" lengthAdjust="spacing" textLength="184.1191" x="13" y="918.5889">question_statement : Text</text><text fill="#000000" font-family="sans-serif" font-size="14" lengthAdjust="spacing" textLength="108.5752" x="13" y="934.8857">option1 : String</text><text fill="#000000" font-family="sans-serif" font-size="14" lengthAdjust="spacing" textLength="108.5752" x="13" y="951.1826">option2 : String</text><text fill="#000000" font-family="sans-serif" font-size="14" lengthAdjust="spacing" textLength="108.5752" x="13" y="967.4795">option3 : String</text><text fill="#000000" font-family="sans-serif" font-size="14" lengthAdjust="spacing" textLength="108.5752" x="13" y="983.7764">option4 : String</text><text fill="#000000" font-family="sans-serif" font-size="14" lengthAdjust="spacing" textLength="164.8213" x="13" y="1000.0732">correct_option : Integer</text></g><!--class Scores--><g id="elem_Scores"><rect codeLine="66" fill="#FFFFFF" height="145.7813" id="Scores" rx="2.5" ry="2.5" style="stroke:#666666;stroke-width:0.5;" width="182.7686" x="238.5" y="845"/><ellipse cx="302.228" cy="861" fill="#ADD1B2" rx="11" ry="11" style="stroke:#181818;stroke-width:1;"/><path d="M305.1968,866.6406 Q304.6187,866.9375 303.978,867.0781 Q303.3374,867.2344 302.6343,867.2344 Q300.1343,867.2344 298.8062,865.5938 Q297.4937,863.9375 297.4937,860.8125 Q297.4937,857.6875 298.8062,856.0313 Q300.1343,854.375 302.6343,854.375 Q303.3374,854.375 303.978,854.5313 Q304.6343,854.6875 305.1968,854.9844 L305.1968,857.7031 Q304.5718,857.125 303.978,856.8594 Q303.3843,856.5781 302.7593,856.5781 Q301.4155,856.5781 300.728,857.6563 Q300.0405,858.7188 300.0405,860.8125 Q300.0405,862.9063 300.728,863.9844 Q301.4155,865.0469 302.7593,865.0469 Q303.3843,865.0469 303.978,864.7813 Q304.5718,864.5 305.1968,863.9219 L305.1968,866.6406 Z " fill="#000000"/><text fill="#000000" font-family="sans-serif" font-size="14" lengthAdjust="spacing" textLength="46.8125" x="322.728" y="865.8467">Scores</text><line style="stroke:#666666;stroke-width:0.5;" x1="239.5" x2="420.2686" y1="877" y2="877"/><ellipse cx="249.5" cy="890.6484" fill="none" rx="3" ry="3" style="stroke:#038048;stroke-width:1;"/><text fill="#000000" font-family="sans-serif" font-size="14" lengthAdjust="spacing" textLength="111.5078" x="258.5" y="893.9951">id: Integer &#171;PK&#187;</text><line style="stroke:#666666;stroke-width:1;" x1="239.5" x2="420.2686" y1="901.2969" y2="901.2969"/><text fill="#000000" font-family="sans-serif" font-size="14" lengthAdjust="spacing" textLength="114.29" x="244.5" y="918.292">user_id : Integer</text><text fill="#000000" font-family="sans-serif" font-size="14" lengthAdjust="spacing" textLength="112.752" x="244.5" y="934.5889">quiz_id : Integer</text><text fill="#000000" font-family="sans-serif" font-size="14" lengthAdjust="spacing" textLength="101.9033" x="244.5" y="950.8857">score : Integer</text><text fill="#000000" font-family="sans-serif" font-size="14" lengthAdjust="spacing" textLength="170.7686" x="244.5" y="967.1826">total_questions : Integer</text><text fill="#000000" font-family="sans-serif" font-size="14" lengthAdjust="spacing" textLength="154.2256" x="244.5" y="983.4795">timestamp : Datetime</text></g><!--link Users to Scores--><g id="link_Users_Scores"><path codeLine="76" d="M282.84,169.25 C287.19,188.69 291.28,209.49 294,229 C325.08,452.01 329.92,719.07 330.3,844.8 " fill="none" id="Users-Scores" style="stroke:#666666;stroke-width:1;"/><text fill="#000000" font-family="sans-serif" font-size="13" lengthAdjust="spacing" textLength="8.271" x="276.3328" y="189.2236">1</text><text fill="#000000" font-family="sans-serif" font-size="13" lengthAdjust="spacing" textLength="6.5" x="324.0702" y="833.9403">*</text></g><!--link Users to Subjects--><g id="link_Users_Subjects"><path codeLine="77" d="M235.22,169.14 C228.61,188.93 221.61,209.88 215.29,228.78 " fill="none" id="Users-Subjects" style="stroke:#666666;stroke-width:1;"/><text fill="#000000" font-family="sans-serif" font-size="13" lengthAdjust="spacing" textLength="8.271" x="224.4716" y="189.1038">1</text><text fill="#000000" font-family="sans-serif" font-size="13" lengthAdjust="spacing" textLength="6.5" x="211.2953" y="217.9286">*</text></g><!--link Subjects to Chapters--><g id="link_Subjects_Chapters"><path codeLine="78" d="M192.98,358.07 C192.67,377.34 192.33,398.51 192.02,417.79 " fill="none" id="Subjects-Chapters" style="stroke:#666666;stroke-width:1;"/><text fill="#000000" font-family="sans-serif" font-size="13" lengthAdjust="spacing" textLength="8.271" x="184.3914" y="378.4497">1</text><text fill="#000000" font-family="sans-serif" font-size="13" lengthAdjust="spacing" textLength="6.5" x="185.8082" y="406.9397">*</text></g><!--link Chapters to Quizzes--><g id="link_Chapters_Quizzes"><path codeLine="79" d="M189.75,547.05 C189.38,565.94 188.97,586.89 188.58,606.7 " fill="none" id="Chapters-Quizzes" style="stroke:#666666;stroke-width:1;"/><text fill="#000000" font-family="sans-serif" font-size="13" lengthAdjust="spacing" textLength="8.271" x="181.1348" y="567.4274">1</text><text fill="#000000" font-family="sans-serif" font-size="13" lengthAdjust="spacing" textLength="6.5" x="182.4861" y="595.8606">*</text></g><!--link Quizzes to Questions--><g id="link_Quizzes_Questions"><path codeLine="80" d="M158.21,769.06 C151.24,788.44 143.75,809.25 136.66,828.97 " fill="none" id="Quizzes-Questions" style="stroke:#666666;stroke-width:1;"/><text fill="#000000" font-family="sans-serif" font-size="13" lengthAdjust="spacing" textLength="8.271" x="147.312" y="789.0167">1</text><text fill="#000000" font-family="sans-serif" font-size="13" lengthAdjust="spacing" textLength="6.5" x="133.0492" y="818.033">*</text></g><!--link Quizzes to Scores--><g id="link_Quizzes_Scores"><path codeLine="81" d="M237.22,769.06 C252.67,793.7 269.58,820.66 284.68,844.74 " fill="none" id="Quizzes-Scores" style="stroke:#666666;stroke-width:1;"/><text fill="#000000" font-family="sans-serif" font-size="13" lengthAdjust="spacing" textLength="8.271" x="233.3588" y="789.0167">1</text><text fill="#000000" font-family="sans-serif" font-size="13" lengthAdjust="spacing" textLength="6.5" x="273.9595" y="833.8744">*</text></g><!--SRC=[fLHDJyCm3BttLqJb1jfXW3XC4n8R5yG568XZbJNU5fOchPCo6EA_uwvTFuTMH0-Lycm_FxywjMkfOuuyOg7Yrh8lZx493zTBDAaMKwCCijULT43u3QBPvD39rUx9aWqAm2RwxNavsui5p3dFc1GZTgSTB07PUFnmVtrDy610hvIoD8-0ZTZCeTHBmc8gtn1r7LkaIWNjn2JbIYvao9qqkXuGPax7MxwJpaCdtxEwYJ4AkAuaFj7vkCHsLm4sH1atUvQSitJ-1g7xB-qpV3W2GmGQGWJpJrRor63kYZ6TZA3IC5tnsFLnlvS6cqyKIF4N3O-ft6vxkEkaKmqDOIw-tKvGXy0iWeHuwmqpXWW2aU9-2weQX8ZZsdRj_5Kps8pakEfCHLjXKbG7rX5p1DfLZStEqs5zpXmwxq8NNUYoOP11pBw7YLi3Lpj8AT3lxdM7w0vcCxe6uepZAaXAknenifGSYEAMnVd_m1_wr9pvftwXyW1Ut22ll4gru7wrlNB7Qy5YvxpzxZL2XTP3mLp93m00]--></g></svg>