<svg xmlns="http://www.w3.org/2000/svg" xmlns:xlink="http://www.w3.org/1999/xlink" contentStyleType="text/css" height="496px" preserveAspectRatio="none" style="width:1112px;height:496px;background:#FFFFFF;" version="1.1" viewBox="0 0 1112 496" width="1112px" zoomAndPan="magnify"><defs/><g><!--class Users--><g id="elem_Users"><rect codeLine="9" fill="#FFFFFF" height="162.0781" id="Users" rx="2.5" ry="2.5" style="stroke:#666666;stroke-width:0.5;" width="153.4287" x="7" y="195"/><ellipse cx="59.8623" cy="211" fill="#ADD1B2" rx="11" ry="11" style="stroke:#181818;stroke-width:1;"/><path d="M62.8311,216.6406 Q62.2529,216.9375 61.6123,217.0781 Q60.9717,217.2344 60.2686,217.2344 Q57.7686,217.2344 56.4404,215.5938 Q55.1279,213.9375 55.1279,210.8125 Q55.1279,207.6875 56.4404,206.0313 Q57.7686,204.375 60.2686,204.375 Q60.9717,204.375 61.6123,204.5313 Q62.2686,204.6875 62.8311,204.9844 L62.8311,207.7031 Q62.2061,207.125 61.6123,206.8594 Q61.0186,206.5781 60.3936,206.5781 Q59.0498,206.5781 58.3623,207.6563 Q57.6748,208.7188 57.6748,210.8125 Q57.6748,212.9063 58.3623,213.9844 Q59.0498,215.0469 60.3936,215.0469 Q61.0186,215.0469 61.6123,214.7813 Q62.2061,214.5 62.8311,213.9219 L62.8311,216.6406 Z " fill="#000000"/><text fill="#000000" font-family="sans-serif" font-size="14" lengthAdjust="spacing" textLength="39.2041" x="80.3623" y="215.8467">Users</text><line style="stroke:#666666;stroke-width:0.5;" x1="8" x2="159.4287" y1="227" y2="227"/><ellipse cx="18" cy="240.6484" fill="none" rx="3" ry="3" style="stroke:#038048;stroke-width:1;"/><text fill="#000000" font-family="sans-serif" font-size="14" lengthAdjust="spacing" textLength="111.5078" x="27" y="243.9951">id: Integer &#171;PK&#187;</text><line style="stroke:#666666;stroke-width:1;" x1="8" x2="159.4287" y1="251.2969" y2="251.2969"/><text fill="#000000" font-family="sans-serif" font-size="14" lengthAdjust="spacing" textLength="125.6377" x="13" y="268.292">username : String</text><text fill="#000000" font-family="sans-serif" font-size="14" lengthAdjust="spacing" textLength="122.1104" x="13" y="284.5889">password : String</text><text fill="#000000" font-family="sans-serif" font-size="14" lengthAdjust="spacing" textLength="123.6826" x="13" y="300.8857">full_name : String</text><text fill="#000000" font-family="sans-serif" font-size="14" lengthAdjust="spacing" textLength="141.4287" x="13" y="317.1826">qualification : String</text><text fill="#000000" font-family="sans-serif" font-size="14" lengthAdjust="spacing" textLength="73.418" x="13" y="333.4795">dob : Date</text><text fill="#000000" font-family="sans-serif" font-size="14" lengthAdjust="spacing" textLength="112.8613" x="13" y="349.7764">active : Boolean</text></g><!--class Roles--><g id="elem_Roles"><rect codeLine="20" fill="#FFFFFF" height="96.8906" id="Roles" rx="2.5" ry="2.5" style="stroke:#666666;stroke-width:0.5;" width="145.2393" x="11" y="392.5"/><ellipse cx="60.3247" cy="408.5" fill="#ADD1B2" rx="11" ry="11" style="stroke:#181818;stroke-width:1;"/><path d="M63.2935,414.1406 Q62.7153,414.4375 62.0747,414.5781 Q61.4341,414.7344 60.731,414.7344 Q58.231,414.7344 56.9028,413.0938 Q55.5903,411.4375 55.5903,408.3125 Q55.5903,405.1875 56.9028,403.5313 Q58.231,401.875 60.731,401.875 Q61.4341,401.875 62.0747,402.0313 Q62.731,402.1875 63.2935,402.4844 L63.2935,405.2031 Q62.6685,404.625 62.0747,404.3594 Q61.481,404.0781 60.856,404.0781 Q59.5122,404.0781 58.8247,405.1563 Q58.1372,406.2188 58.1372,408.3125 Q58.1372,410.4063 58.8247,411.4844 Q59.5122,412.5469 60.856,412.5469 Q61.481,412.5469 62.0747,412.2813 Q62.6685,412 63.2935,411.4219 L63.2935,414.1406 Z " fill="#000000"/><text fill="#000000" font-family="sans-serif" font-size="14" lengthAdjust="spacing" textLength="38.0898" x="80.8247" y="413.3467">Roles</text><line style="stroke:#666666;stroke-width:0.5;" x1="12" x2="155.2393" y1="424.5" y2="424.5"/><ellipse cx="22" cy="438.1484" fill="none" rx="3" ry="3" style="stroke:#038048;stroke-width:1;"/><text fill="#000000" font-family="sans-serif" font-size="14" lengthAdjust="spacing" textLength="111.5078" x="31" y="441.4951">id: Integer &#171;PK&#187;</text><line style="stroke:#666666;stroke-width:1;" x1="12" x2="155.2393" y1="448.7969" y2="448.7969"/><text fill="#000000" font-family="sans-serif" font-size="14" lengthAdjust="spacing" textLength="95.1016" x="17" y="465.792">name : String</text><text fill="#000000" font-family="sans-serif" font-size="14" lengthAdjust="spacing" textLength="133.2393" x="17" y="482.0889">description : String</text></g><!--class Subjects--><g id="elem_Subjects"><rect codeLine="27" fill="#FFFFFF" height="129.4844" id="Subjects" rx="2.5" ry="2.5" style="stroke:#666666;stroke-width:0.5;" width="165.4121" x="220" y="106.5"/><ellipse cx="268.6411" cy="122.5" fill="#ADD1B2" rx="11" ry="11" style="stroke:#181818;stroke-width:1;"/><path d="M271.6099,128.1406 Q271.0317,128.4375 270.3911,128.5781 Q269.7505,128.7344 269.0474,128.7344 Q266.5474,128.7344 265.2192,127.0938 Q263.9067,125.4375 263.9067,122.3125 Q263.9067,119.1875 265.2192,117.5313 Q266.5474,115.875 269.0474,115.875 Q269.7505,115.875 270.3911,116.0313 Q271.0474,116.1875 271.6099,116.4844 L271.6099,119.2031 Q270.9849,118.625 270.3911,118.3594 Q269.7974,118.0781 269.1724,118.0781 Q267.8286,118.0781 267.1411,119.1563 Q266.4536,120.2188 266.4536,122.3125 Q266.4536,124.4063 267.1411,125.4844 Q267.8286,126.5469 269.1724,126.5469 Q269.7974,126.5469 270.3911,126.2813 Q270.9849,126 271.6099,125.4219 L271.6099,128.1406 Z " fill="#000000"/><text fill="#000000" font-family="sans-serif" font-size="14" lengthAdjust="spacing" textLength="59.6299" x="289.1411" y="127.3467">Subjects</text><line style="stroke:#666666;stroke-width:0.5;" x1="221" x2="384.4121" y1="138.5" y2="138.5"/><ellipse cx="231" cy="152.1484" fill="none" rx="3" ry="3" style="stroke:#038048;stroke-width:1;"/><text fill="#000000" font-family="sans-serif" font-size="14" lengthAdjust="spacing" textLength="111.5078" x="240" y="155.4951">id: Integer &#171;PK&#187;</text><line style="stroke:#666666;stroke-width:1;" x1="221" x2="384.4121" y1="162.7969" y2="162.7969"/><text fill="#000000" font-family="sans-serif" font-size="14" lengthAdjust="spacing" textLength="95.1016" x="226" y="179.792">name : String</text><text fill="#000000" font-family="sans-serif" font-size="14" lengthAdjust="spacing" textLength="122.3975" x="226" y="196.0889">description : Text</text><text fill="#000000" font-family="sans-serif" font-size="14" lengthAdjust="spacing" textLength="141.7842" x="226" y="212.3857">created_by : Integer</text><text fill="#000000" font-family="sans-serif" font-size="14" lengthAdjust="spacing" textLength="153.4121" x="226" y="228.6826">created_at : Datetime</text></g><!--class Chapters--><g id="elem_Chapters"><rect codeLine="36" fill="#FFFFFF" height="129.4844" id="Chapters" rx="2.5" ry="2.5" style="stroke:#666666;stroke-width:0.5;" width="165.4121" x="445" y="102.5"/><ellipse cx="491.8228" cy="118.5" fill="#ADD1B2" rx="11" ry="11" style="stroke:#181818;stroke-width:1;"/><path d="M494.7915,124.1406 Q494.2134,124.4375 493.5728,124.5781 Q492.9321,124.7344 492.229,124.7344 Q489.729,124.7344 488.4009,123.0938 Q487.0884,121.4375 487.0884,118.3125 Q487.0884,115.1875 488.4009,113.5313 Q489.729,111.875 492.229,111.875 Q492.9321,111.875 493.5728,112.0313 Q494.229,112.1875 494.7915,112.4844 L494.7915,115.2031 Q494.1665,114.625 493.5728,114.3594 Q492.979,114.0781 492.354,114.0781 Q491.0103,114.0781 490.3228,115.1563 Q489.6353,116.2188 489.6353,118.3125 Q489.6353,120.4063 490.3228,121.4844 Q491.0103,122.5469 492.354,122.5469 Q492.979,122.5469 493.5728,122.2813 Q494.1665,122 494.7915,121.4219 L494.7915,124.1406 Z " fill="#000000"/><text fill="#000000" font-family="sans-serif" font-size="14" lengthAdjust="spacing" textLength="63.2666" x="512.3228" y="123.3467">Chapters</text><line style="stroke:#666666;stroke-width:0.5;" x1="446" x2="609.4121" y1="134.5" y2="134.5"/><ellipse cx="456" cy="148.1484" fill="none" rx="3" ry="3" style="stroke:#038048;stroke-width:1;"/><text fill="#000000" font-family="sans-serif" font-size="14" lengthAdjust="spacing" textLength="111.5078" x="465" y="151.4951">id: Integer &#171;PK&#187;</text><line style="stroke:#666666;stroke-width:1;" x1="446" x2="609.4121" y1="158.7969" y2="158.7969"/><text fill="#000000" font-family="sans-serif" font-size="14" lengthAdjust="spacing" textLength="95.1016" x="451" y="175.792">name : String</text><text fill="#000000" font-family="sans-serif" font-size="14" lengthAdjust="spacing" textLength="122.3975" x="451" y="192.0889">description : Text</text><text fill="#000000" font-family="sans-serif" font-size="14" lengthAdjust="spacing" textLength="134.4971" x="451" y="208.3857">subject_id : Integer</text><text fill="#000000" font-family="sans-serif" font-size="14" lengthAdjust="spacing" textLength="153.4121" x="451" y="224.6826">created_at : Datetime</text></g><!--class Quizzes--><g id="elem_Quizzes"><rect codeLine="45" fill="#FFFFFF" height="162.0781" id="Quizzes" rx="2.5" ry="2.5" style="stroke:#666666;stroke-width:0.5;" width="178.7695" x="670" y="78"/><ellipse cx="727.9414" cy="94" fill="#ADD1B2" rx="11" ry="11" style="stroke:#181818;stroke-width:1;"/><path d="M730.9102,99.6406 Q730.332,99.9375 729.6914,100.0781 Q729.0508,100.2344 728.3477,100.2344 Q725.8477,100.2344 724.5195,98.5938 Q723.207,96.9375 723.207,93.8125 Q723.207,90.6875 724.5195,89.0313 Q725.8477,87.375 728.3477,87.375 Q729.0508,87.375 729.6914,87.5313 Q730.3477,87.6875 730.9102,87.9844 L730.9102,90.7031 Q730.2852,90.125 729.6914,89.8594 Q729.0977,89.5781 728.4727,89.5781 Q727.1289,89.5781 726.4414,90.6563 Q725.7539,91.7188 725.7539,93.8125 Q725.7539,95.9063 726.4414,96.9844 Q727.1289,98.0469 728.4727,98.0469 Q729.0977,98.0469 729.6914,97.7813 Q730.2852,97.5 730.9102,96.9219 L730.9102,99.6406 Z " fill="#000000"/><text fill="#000000" font-family="sans-serif" font-size="14" lengthAdjust="spacing" textLength="54.3867" x="748.4414" y="98.8467">Quizzes</text><line style="stroke:#666666;stroke-width:0.5;" x1="671" x2="847.7695" y1="110" y2="110"/><ellipse cx="681" cy="123.6484" fill="none" rx="3" ry="3" style="stroke:#038048;stroke-width:1;"/><text fill="#000000" font-family="sans-serif" font-size="14" lengthAdjust="spacing" textLength="111.5078" x="690" y="126.9951">id: Integer &#171;PK&#187;</text><line style="stroke:#666666;stroke-width:1;" x1="671" x2="847.7695" y1="134.2969" y2="134.2969"/><text fill="#000000" font-family="sans-serif" font-size="14" lengthAdjust="spacing" textLength="82.7695" x="676" y="151.292">title : String</text><text fill="#000000" font-family="sans-serif" font-size="14" lengthAdjust="spacing" textLength="137.6484" x="676" y="167.5889">chapter_id : Integer</text><text fill="#000000" font-family="sans-serif" font-size="14" lengthAdjust="spacing" textLength="166.7695" x="676" y="183.8857">date_of_quiz : Datetime</text><text fill="#000000" font-family="sans-serif" font-size="14" lengthAdjust="spacing" textLength="161.5195" x="676" y="200.1826">time_duration : Integer</text><text fill="#000000" font-family="sans-serif" font-size="14" lengthAdjust="spacing" textLength="102.2998" x="676" y="216.4795">remarks : Text</text><text fill="#000000" font-family="sans-serif" font-size="14" lengthAdjust="spacing" textLength="153.4121" x="676" y="232.7764">created_at : Datetime</text></g><!--class Questions--><g id="elem_Questions"><rect codeLine="56" fill="#FFFFFF" height="178.375" id="Questions" rx="2.5" ry="2.5" style="stroke:#666666;stroke-width:0.5;" width="196.1191" x="909" y="7"/><ellipse cx="967.854" cy="23" fill="#ADD1B2" rx="11" ry="11" style="stroke:#181818;stroke-width:1;"/><path d="M970.8228,28.6406 Q970.2446,28.9375 969.604,29.0781 Q968.9634,29.2344 968.2603,29.2344 Q965.7603,29.2344 964.4321,27.5938 Q963.1196,25.9375 963.1196,22.8125 Q963.1196,19.6875 964.4321,18.0313 Q965.7603,16.375 968.2603,16.375 Q968.9634,16.375 969.604,16.5313 Q970.2603,16.6875 970.8228,16.9844 L970.8228,19.7031 Q970.1978,19.125 969.604,18.8594 Q969.0103,18.5781 968.3853,18.5781 Q967.0415,18.5781 966.354,19.6563 Q965.6665,20.7188 965.6665,22.8125 Q965.6665,24.9063 966.354,25.9844 Q967.0415,27.0469 968.3853,27.0469 Q969.0103,27.0469 969.604,26.7813 Q970.1978,26.5 970.8228,25.9219 L970.8228,28.6406 Z " fill="#000000"/><text fill="#000000" font-family="sans-serif" font-size="14" lengthAdjust="spacing" textLength="69.9111" x="988.354" y="27.8467">Questions</text><line style="stroke:#666666;stroke-width:0.5;" x1="910" x2="1104.1191" y1="39" y2="39"/><ellipse cx="920" cy="52.6484" fill="none" rx="3" ry="3" style="stroke:#038048;stroke-width:1;"/><text fill="#000000" font-family="sans-serif" font-size="14" lengthAdjust="spacing" textLength="111.5078" x="929" y="55.9951">id: Integer &#171;PK&#187;</text><line style="stroke:#666666;stroke-width:1;" x1="910" x2="1104.1191" y1="63.2969" y2="63.2969"/><text fill="#000000" font-family="sans-serif" font-size="14" lengthAdjust="spacing" textLength="112.752" x="915" y="80.292">quiz_id : Integer</text><text fill="#000000" font-family="sans-serif" font-size="14" lengthAdjust="spacing" textLength="184.1191" x="915" y="96.5889">question_statement : Text</text><text fill="#000000" font-family="sans-serif" font-size="14" lengthAdjust="spacing" textLength="108.5752" x="915" y="112.8857">option1 : String</text><text fill="#000000" font-family="sans-serif" font-size="14" lengthAdjust="spacing" textLength="108.5752" x="915" y="129.1826">option2 : String</text><text fill="#000000" font-family="sans-serif" font-size="14" lengthAdjust="spacing" textLength="108.5752" x="915" y="145.4795">option3 : String</text><text fill="#000000" font-family="sans-serif" font-size="14" lengthAdjust="spacing" textLength="108.5752" x="915" y="161.7764">option4 : String</text><text fill="#000000" font-family="sans-serif" font-size="14" lengthAdjust="spacing" textLength="164.8213" x="915" y="178.0732">correct_option : Integer</text></g><!--class Scores--><g id="elem_Scores"><rect codeLine="68" fill="#FFFFFF" height="145.7813" id="Scores" rx="2.5" ry="2.5" style="stroke:#666666;stroke-width:0.5;" width="182.7686" x="915.5" y="220"/><ellipse cx="979.228" cy="236" fill="#ADD1B2" rx="11" ry="11" style="stroke:#181818;stroke-width:1;"/><path d="M982.1968,241.6406 Q981.6187,241.9375 980.978,242.0781 Q980.3374,242.2344 979.6343,242.2344 Q977.1343,242.2344 975.8062,240.5938 Q974.4937,238.9375 974.4937,235.8125 Q974.4937,232.6875 975.8062,231.0313 Q977.1343,229.375 979.6343,229.375 Q980.3374,229.375 980.978,229.5313 Q981.6343,229.6875 982.1968,229.9844 L982.1968,232.7031 Q981.5718,232.125 980.978,231.8594 Q980.3843,231.5781 979.7593,231.5781 Q978.4155,231.5781 977.728,232.6563 Q977.0405,233.7188 977.0405,235.8125 Q977.0405,237.9063 977.728,238.9844 Q978.4155,240.0469 979.7593,240.0469 Q980.3843,240.0469 980.978,239.7813 Q981.5718,239.5 982.1968,238.9219 L982.1968,241.6406 Z " fill="#000000"/><text fill="#000000" font-family="sans-serif" font-size="14" lengthAdjust="spacing" textLength="46.8125" x="999.728" y="240.8467">Scores</text><line style="stroke:#666666;stroke-width:0.5;" x1="916.5" x2="1097.2686" y1="252" y2="252"/><ellipse cx="926.5" cy="265.6484" fill="none" rx="3" ry="3" style="stroke:#038048;stroke-width:1;"/><text fill="#000000" font-family="sans-serif" font-size="14" lengthAdjust="spacing" textLength="111.5078" x="935.5" y="268.9951">id: Integer &#171;PK&#187;</text><line style="stroke:#666666;stroke-width:1;" x1="916.5" x2="1097.2686" y1="276.2969" y2="276.2969"/><text fill="#000000" font-family="sans-serif" font-size="14" lengthAdjust="spacing" textLength="114.29" x="921.5" y="293.292">user_id : Integer</text><text fill="#000000" font-family="sans-serif" font-size="14" lengthAdjust="spacing" textLength="112.752" x="921.5" y="309.5889">quiz_id : Integer</text><text fill="#000000" font-family="sans-serif" font-size="14" lengthAdjust="spacing" textLength="101.9033" x="921.5" y="325.8857">score : Integer</text><text fill="#000000" font-family="sans-serif" font-size="14" lengthAdjust="spacing" textLength="170.7686" x="921.5" y="342.1826">total_questions : Integer</text><text fill="#000000" font-family="sans-serif" font-size="14" lengthAdjust="spacing" textLength="154.2256" x="921.5" y="358.4795">timestamp : Datetime</text></g><!--class users_roles--><g id="elem_users_roles"><rect codeLine="79" fill="#FFFFFF" height="88.8594" id="users_roles" rx="2.5" ry="2.5" style="stroke:#666666;stroke-width:0.5;" width="160.6543" x="222" y="363.5"/><ellipse cx="259.3677" cy="383.6328" fill="#ADD1B2" rx="11" ry="11" style="stroke:#181818;stroke-width:1;"/><path d="M262.3365,389.2734 Q261.7583,389.5703 261.1177,389.7109 Q260.4771,389.8672 259.774,389.8672 Q257.274,389.8672 255.9458,388.2266 Q254.6333,386.5703 254.6333,383.4453 Q254.6333,380.3203 255.9458,378.6641 Q257.274,377.0078 259.774,377.0078 Q260.4771,377.0078 261.1177,377.1641 Q261.774,377.3203 262.3365,377.6172 L262.3365,380.3359 Q261.7115,379.7578 261.1177,379.4922 Q260.524,379.2109 259.899,379.2109 Q258.5552,379.2109 257.8677,380.2891 Q257.1802,381.3516 257.1802,383.4453 Q257.1802,385.5391 257.8677,386.6172 Q258.5552,387.6797 259.899,387.6797 Q260.524,387.6797 261.1177,387.4141 Q261.7115,387.1328 262.3365,386.5547 L262.3365,389.2734 Z " fill="#000000"/><text fill="#000000" font-family="sans-serif" font-size="12" font-style="italic" lengthAdjust="spacing" textLength="62.9414" x="286.3417" y="379.6387">&#171;junction&#187;</text><text fill="#000000" font-family="sans-serif" font-size="14" lengthAdjust="spacing" textLength="78.9482" x="278.3383" y="395.4639">users_roles</text><line style="stroke:#666666;stroke-width:0.5;" x1="223" x2="381.6543" y1="403.7656" y2="403.7656"/><text fill="#000000" font-family="sans-serif" font-size="14" lengthAdjust="spacing" textLength="148.6543" x="228" y="420.7607">user_id: Integer &#171;FK&#187;</text><text fill="#000000" font-family="sans-serif" font-size="14" lengthAdjust="spacing" textLength="144.9424" x="228" y="437.0576">role_id: Integer &#171;FK&#187;</text><line style="stroke:#666666;stroke-width:0.5;" x1="223" x2="381.6543" y1="444.3594" y2="444.3594"/></g><!--reverse link Users to users_roles--><g id="link_Users_users_roles"><path codeLine="85" d="M170.3432,328.2148 C192.3632,341.6048 206.12,349.98 228.01,363.29 " fill="none" id="Users-backto-users_roles" style="stroke:#666666;stroke-width:1;"/><polygon fill="#666666" points="160.09,321.98,163.1383,328.5151,170.3432,328.2148,167.2948,321.6797,160.09,321.98" style="stroke:#666666;stroke-width:1;"/><text fill="#000000" font-family="sans-serif" font-size="13" lengthAdjust="spacing" textLength="8.271" x="168.3927" y="339.5648">1</text><text fill="#000000" font-family="sans-serif" font-size="13" lengthAdjust="spacing" textLength="6.5" x="210.2091" y="352.3832">*</text></g><!--reverse link Roles to users_roles--><g id="link_Roles_users_roles"><path codeLine="86" d="M168.0236,428.2961 C189.0036,425.1061 200.22,423.4 221.68,420.14 " fill="none" id="Roles-backto-users_roles" style="stroke:#666666;stroke-width:1;"/><polygon fill="#666666" points="156.16,430.1,162.6931,433.1526,168.0236,428.2961,161.4905,425.2435,156.16,430.1" style="stroke:#666666;stroke-width:1;"/><text fill="#000000" font-family="sans-serif" font-size="13" lengthAdjust="spacing" textLength="8.271" x="164.0672" y="441.8288">1</text><text fill="#000000" font-family="sans-serif" font-size="13" lengthAdjust="spacing" textLength="6.5" x="207.4706" y="434.1537">*</text></g><!--link Users to Scores--><g id="link_Users_Scores"><path codeLine="87" d="M160.3,277.4 C328.75,280.51 733.59,287.97 915.18,291.32 " fill="none" id="Users-Scores" style="stroke:#666666;stroke-width:1;"/><text fill="#000000" font-family="sans-serif" font-size="13" lengthAdjust="spacing" textLength="8.271" x="168.6244" y="290.3875">1</text><text fill="#000000" font-family="sans-serif" font-size="13" lengthAdjust="spacing" textLength="6.5" x="901.0628" y="303.9022">*</text></g><!--link Users to Subjects--><g id="link_Users_Subjects"><path codeLine="88" d="M160.09,239.42 C179.42,230.07 200.28,219.98 219.9,210.49 " fill="none" id="Users-Subjects" style="stroke:#666666;stroke-width:1;"/><text fill="#000000" font-family="sans-serif" font-size="13" lengthAdjust="spacing" textLength="8.271" x="168.3927" y="248.4908">1</text><text fill="#000000" font-family="sans-serif" font-size="13" lengthAdjust="spacing" textLength="6.5" x="205.4781" y="227.1652">*</text></g><!--link Subjects to Chapters--><g id="link_Subjects_Chapters"><path codeLine="89" d="M385.27,169.53 C404.66,169.19 425.35,168.81 444.74,168.47 " fill="none" id="Subjects-Chapters" style="stroke:#666666;stroke-width:1;"/><text fill="#000000" font-family="sans-serif" font-size="13" lengthAdjust="spacing" textLength="8.271" x="393.5335" y="182.1549">1</text><text fill="#000000" font-family="sans-serif" font-size="13" lengthAdjust="spacing" textLength="6.5" x="430.5702" y="181.3751">*</text></g><!--link Chapters to Quizzes--><g id="link_Chapters_Quizzes"><path codeLine="90" d="M610.24,164.16 C629.48,163.49 650.07,162.77 669.61,162.09 " fill="none" id="Chapters-Quizzes" style="stroke:#666666;stroke-width:1;"/><text fill="#000000" font-family="sans-serif" font-size="13" lengthAdjust="spacing" textLength="8.271" x="618.5007" y="176.6543">1</text><text fill="#000000" font-family="sans-serif" font-size="13" lengthAdjust="spacing" textLength="6.5" x="655.3695" y="175.1025">*</text></g><!--link Quizzes to Questions--><g id="link_Quizzes_Questions"><path codeLine="91" d="M849.13,136.26 C868.5,131.29 889.09,126 908.77,120.95 " fill="none" id="Quizzes-Questions" style="stroke:#666666;stroke-width:1;"/><text fill="#000000" font-family="sans-serif" font-size="13" lengthAdjust="spacing" textLength="8.271" x="856.9045" y="147.0671">1</text><text fill="#000000" font-family="sans-serif" font-size="13" lengthAdjust="spacing" textLength="6.5" x="894.4027" y="135.6941">*</text></g><!--link Quizzes to Scores--><g id="link_Quizzes_Scores"><path codeLine="92" d="M849.13,207.38 C870.69,219.15 893.78,231.75 915.43,243.57 " fill="none" id="Quizzes-Scores" style="stroke:#666666;stroke-width:1;"/><text fill="#000000" font-family="sans-serif" font-size="13" lengthAdjust="spacing" textLength="8.271" x="856.9045" y="224.0767">1</text><text fill="#000000" font-family="sans-serif" font-size="13" lengthAdjust="spacing" textLength="6.5" x="901.0399" y="251.9182">*</text></g><!--SRC=[fLHDRzGm4BtxLrZB0Qbe3mN4eLgjr1OX0HTeYpXQtdXsrrt7peuT2aNyTyPnDd6IhRg872BbpSTxy-AntsbRIPGbBupqdlzcd5_9OhT1LrjrxOn3_dsh0n1-YUWU4lJYNVF4P8SAS8Z-OSp0El3WEEhDDd2b4OgWdMKiqNppW8di5TVgWd-q0JQ0VB7uydcv97W-frTDMLQMm2_uRK1jDuHLLFv0d3csheqHuyHzBOrUwq96tZoWt8e-tyjc9acoViIwA-SCI1kr9uatzFsyn36h0b-WheQSNS_RUdLFHlnlsplu6GWi46W89LQ_UDSdWsLenmowX5x3zLPMuHJtJzBWqqH2gt_HyBNMZuydk1jqC0CDHH8_fbF48DnQxAblJXWxb21KZOTJqDSWb19tVchdavh1noRFguugnWhtRRNmWJgNO4DFx1fFp_Cv4_Hw2hsPGcy71ZcCgoPSDHguFuEK0gVjtdI8wM0-jXiWmGLfnBwpQn0ZIyc1iXfP_99_gcrpG_0xkQB5QyL65LvWiugBnNsRirmsyZkH-GmVqWpqVwdeMAnXkm7Jd0Y_rPLdwJQQdS_usNpEPsUpd9UbY-2fQ5_R1fE_H_1szrbt2MJ1mrAoRZkpOBijxB0rWr3hyh5WKl8N]--></g></svg>