<svg xmlns="http://www.w3.org/2000/svg" xmlns:xlink="http://www.w3.org/1999/xlink" contentStyleType="text/css" height="1014px" preserveAspectRatio="none" style="width:544px;height:1014px;background:#FFFFFF;" version="1.1" viewBox="0 0 544 1014" width="544px" zoomAndPan="magnify"><defs/><g><!--class Users--><g id="elem_Users"><rect codeLine="3" fill="#F1F1F1" height="162.0781" id="Users" rx="2.5" ry="2.5" style="stroke:#181818;stroke-width:0.5;" width="163.5664" x="182.5" y="7"/><ellipse cx="240.4312" cy="23" fill="#ADD1B2" rx="11" ry="11" style="stroke:#181818;stroke-width:1;"/><path d="M243.3999,28.6406 Q242.8218,28.9375 242.1812,29.0781 Q241.5405,29.2344 240.8374,29.2344 Q238.3374,29.2344 237.0093,27.5938 Q235.6968,25.9375 235.6968,22.8125 Q235.6968,19.6875 237.0093,18.0313 Q238.3374,16.375 240.8374,16.375 Q241.5405,16.375 242.1812,16.5313 Q242.8374,16.6875 243.3999,16.9844 L243.3999,19.7031 Q242.7749,19.125 242.1812,18.8594 Q241.5874,18.5781 240.9624,18.5781 Q239.6187,18.5781 238.9312,19.6563 Q238.2437,20.7188 238.2437,22.8125 Q238.2437,24.9063 238.9312,25.9844 Q239.6187,27.0469 240.9624,27.0469 Q241.5874,27.0469 242.1812,26.7813 Q242.7749,26.5 243.3999,25.9219 L243.3999,28.6406 Z " fill="#000000"/><text fill="#000000" font-family="sans-serif" font-size="14" lengthAdjust="spacing" textLength="39.2041" x="260.9312" y="27.8467">Users</text><line style="stroke:#181818;stroke-width:0.5;" x1="183.5" x2="345.0664" y1="39" y2="39"/><text fill="#000000" font-family="sans-serif" font-size="14" lengthAdjust="spacing" textLength="56.376" x="188.5" y="55.9951">+id : int</text><text fill="#000000" font-family="sans-serif" font-size="14" lengthAdjust="spacing" textLength="135.7754" x="188.5" y="72.292">+username : string</text><text fill="#000000" font-family="sans-serif" font-size="14" lengthAdjust="spacing" textLength="132.248" x="188.5" y="88.5889">+password : string</text><text fill="#000000" font-family="sans-serif" font-size="14" lengthAdjust="spacing" textLength="133.8203" x="188.5" y="104.8857">+full_name : string</text><text fill="#000000" font-family="sans-serif" font-size="14" lengthAdjust="spacing" textLength="151.5664" x="188.5" y="121.1826">+qualification : string</text><text fill="#000000" font-family="sans-serif" font-size="14" lengthAdjust="spacing" textLength="83.2549" x="188.5" y="137.4795">+dob : date</text><text fill="#000000" font-family="sans-serif" font-size="14" lengthAdjust="spacing" textLength="123.874" x="188.5" y="153.7764">+active : boolean</text><line style="stroke:#181818;stroke-width:0.5;" x1="183.5" x2="345.0664" y1="161.0781" y2="161.0781"/></g><!--class Roles--><g id="elem_Roles"><rect codeLine="13" fill="#F1F1F1" height="96.8906" id="Roles" rx="2.5" ry="2.5" style="stroke:#181818;stroke-width:0.5;" width="155.377" x="382" y="39.5"/><ellipse cx="436.3936" cy="55.5" fill="#ADD1B2" rx="11" ry="11" style="stroke:#181818;stroke-width:1;"/><path d="M439.3623,61.1406 Q438.7842,61.4375 438.1436,61.5781 Q437.5029,61.7344 436.7998,61.7344 Q434.2998,61.7344 432.9717,60.0938 Q431.6592,58.4375 431.6592,55.3125 Q431.6592,52.1875 432.9717,50.5313 Q434.2998,48.875 436.7998,48.875 Q437.5029,48.875 438.1436,49.0313 Q438.7998,49.1875 439.3623,49.4844 L439.3623,52.2031 Q438.7373,51.625 438.1436,51.3594 Q437.5498,51.0781 436.9248,51.0781 Q435.5811,51.0781 434.8936,52.1563 Q434.2061,53.2188 434.2061,55.3125 Q434.2061,57.4063 434.8936,58.4844 Q435.5811,59.5469 436.9248,59.5469 Q437.5498,59.5469 438.1436,59.2813 Q438.7373,59 439.3623,58.4219 L439.3623,61.1406 Z " fill="#000000"/><text fill="#000000" font-family="sans-serif" font-size="14" lengthAdjust="spacing" textLength="38.0898" x="456.8936" y="60.3467">Roles</text><line style="stroke:#181818;stroke-width:0.5;" x1="383" x2="536.377" y1="71.5" y2="71.5"/><text fill="#000000" font-family="sans-serif" font-size="14" lengthAdjust="spacing" textLength="56.376" x="388" y="88.4951">+id : int</text><text fill="#000000" font-family="sans-serif" font-size="14" lengthAdjust="spacing" textLength="105.2393" x="388" y="104.792">+name : string</text><text fill="#000000" font-family="sans-serif" font-size="14" lengthAdjust="spacing" textLength="143.377" x="388" y="121.0889">+description : string</text><line style="stroke:#181818;stroke-width:0.5;" x1="383" x2="536.377" y1="128.3906" y2="128.3906"/></g><!--class Subjects--><g id="elem_Subjects"><rect codeLine="19" fill="#F1F1F1" height="129.4844" id="Subjects" rx="2.5" ry="2.5" style="stroke:#181818;stroke-width:0.5;" width="175.249" x="107" y="229"/><ellipse cx="160.5596" cy="245" fill="#ADD1B2" rx="11" ry="11" style="stroke:#181818;stroke-width:1;"/><path d="M163.5283,250.6406 Q162.9502,250.9375 162.3096,251.0781 Q161.6689,251.2344 160.9658,251.2344 Q158.4658,251.2344 157.1377,249.5938 Q155.8252,247.9375 155.8252,244.8125 Q155.8252,241.6875 157.1377,240.0313 Q158.4658,238.375 160.9658,238.375 Q161.6689,238.375 162.3096,238.5313 Q162.9658,238.6875 163.5283,238.9844 L163.5283,241.7031 Q162.9033,241.125 162.3096,240.8594 Q161.7158,240.5781 161.0908,240.5781 Q159.7471,240.5781 159.0596,241.6563 Q158.3721,242.7188 158.3721,244.8125 Q158.3721,246.9063 159.0596,247.9844 Q159.7471,249.0469 161.0908,249.0469 Q161.7158,249.0469 162.3096,248.7813 Q162.9033,248.5 163.5283,247.9219 L163.5283,250.6406 Z " fill="#000000"/><text fill="#000000" font-family="sans-serif" font-size="14" lengthAdjust="spacing" textLength="59.6299" x="181.0596" y="249.8467">Subjects</text><line style="stroke:#181818;stroke-width:0.5;" x1="108" x2="281.249" y1="261" y2="261"/><text fill="#000000" font-family="sans-serif" font-size="14" lengthAdjust="spacing" textLength="56.376" x="113" y="277.9951">+id : int</text><text fill="#000000" font-family="sans-serif" font-size="14" lengthAdjust="spacing" textLength="105.2393" x="113" y="294.292">+name : string</text><text fill="#000000" font-family="sans-serif" font-size="14" lengthAdjust="spacing" textLength="131.0654" x="113" y="310.5889">+description : text</text><text fill="#000000" font-family="sans-serif" font-size="14" lengthAdjust="spacing" textLength="121.4063" x="113" y="326.8857">+created_by : int</text><text fill="#000000" font-family="sans-serif" font-size="14" lengthAdjust="spacing" textLength="163.249" x="113" y="343.1826">+created_at : datetime</text><line style="stroke:#181818;stroke-width:0.5;" x1="108" x2="281.249" y1="350.4844" y2="350.4844"/></g><!--class Chapters--><g id="elem_Chapters"><rect codeLine="27" fill="#F1F1F1" height="129.4844" id="Chapters" rx="2.5" ry="2.5" style="stroke:#181818;stroke-width:0.5;" width="175.249" x="104" y="418"/><ellipse cx="155.7412" cy="434" fill="#ADD1B2" rx="11" ry="11" style="stroke:#181818;stroke-width:1;"/><path d="M158.71,439.6406 Q158.1318,439.9375 157.4912,440.0781 Q156.8506,440.2344 156.1475,440.2344 Q153.6475,440.2344 152.3193,438.5938 Q151.0068,436.9375 151.0068,433.8125 Q151.0068,430.6875 152.3193,429.0313 Q153.6475,427.375 156.1475,427.375 Q156.8506,427.375 157.4912,427.5313 Q158.1475,427.6875 158.71,427.9844 L158.71,430.7031 Q158.085,430.125 157.4912,429.8594 Q156.8975,429.5781 156.2725,429.5781 Q154.9287,429.5781 154.2412,430.6563 Q153.5537,431.7188 153.5537,433.8125 Q153.5537,435.9063 154.2412,436.9844 Q154.9287,438.0469 156.2725,438.0469 Q156.8975,438.0469 157.4912,437.7813 Q158.085,437.5 158.71,436.9219 L158.71,439.6406 Z " fill="#000000"/><text fill="#000000" font-family="sans-serif" font-size="14" lengthAdjust="spacing" textLength="63.2666" x="176.2412" y="438.8467">Chapters</text><line style="stroke:#181818;stroke-width:0.5;" x1="105" x2="278.249" y1="450" y2="450"/><text fill="#000000" font-family="sans-serif" font-size="14" lengthAdjust="spacing" textLength="56.376" x="110" y="466.9951">+id : int</text><text fill="#000000" font-family="sans-serif" font-size="14" lengthAdjust="spacing" textLength="105.2393" x="110" y="483.292">+name : string</text><text fill="#000000" font-family="sans-serif" font-size="14" lengthAdjust="spacing" textLength="131.0654" x="110" y="499.5889">+description : text</text><text fill="#000000" font-family="sans-serif" font-size="14" lengthAdjust="spacing" textLength="114.1191" x="110" y="515.8857">+subject_id : int</text><text fill="#000000" font-family="sans-serif" font-size="14" lengthAdjust="spacing" textLength="163.249" x="110" y="532.1826">+created_at : datetime</text><line style="stroke:#181818;stroke-width:0.5;" x1="105" x2="278.249" y1="539.4844" y2="539.4844"/></g><!--class Quizzes--><g id="elem_Quizzes"><rect codeLine="35" fill="#F1F1F1" height="162.0781" id="Quizzes" rx="2.5" ry="2.5" style="stroke:#181818;stroke-width:0.5;" width="188.6064" x="93" y="607"/><ellipse cx="155.8599" cy="623" fill="#ADD1B2" rx="11" ry="11" style="stroke:#181818;stroke-width:1;"/><path d="M158.8286,628.6406 Q158.2505,628.9375 157.6099,629.0781 Q156.9692,629.2344 156.2661,629.2344 Q153.7661,629.2344 152.438,627.5938 Q151.1255,625.9375 151.1255,622.8125 Q151.1255,619.6875 152.438,618.0313 Q153.7661,616.375 156.2661,616.375 Q156.9692,616.375 157.6099,616.5313 Q158.2661,616.6875 158.8286,616.9844 L158.8286,619.7031 Q158.2036,619.125 157.6099,618.8594 Q157.0161,618.5781 156.3911,618.5781 Q155.0474,618.5781 154.3599,619.6563 Q153.6724,620.7188 153.6724,622.8125 Q153.6724,624.9063 154.3599,625.9844 Q155.0474,627.0469 156.3911,627.0469 Q157.0161,627.0469 157.6099,626.7813 Q158.2036,626.5 158.8286,625.9219 L158.8286,628.6406 Z " fill="#000000"/><text fill="#000000" font-family="sans-serif" font-size="14" lengthAdjust="spacing" textLength="54.3867" x="176.3599" y="627.8467">Quizzes</text><line style="stroke:#181818;stroke-width:0.5;" x1="94" x2="280.6064" y1="639" y2="639"/><text fill="#000000" font-family="sans-serif" font-size="14" lengthAdjust="spacing" textLength="56.376" x="99" y="655.9951">+id : int</text><text fill="#000000" font-family="sans-serif" font-size="14" lengthAdjust="spacing" textLength="92.9072" x="99" y="672.292">+title : string</text><text fill="#000000" font-family="sans-serif" font-size="14" lengthAdjust="spacing" textLength="117.2705" x="99" y="688.5889">+chapter_id : int</text><text fill="#000000" font-family="sans-serif" font-size="14" lengthAdjust="spacing" textLength="176.6064" x="99" y="704.8857">+date_of_quiz : datetime</text><text fill="#000000" font-family="sans-serif" font-size="14" lengthAdjust="spacing" textLength="141.1416" x="99" y="721.1826">+time_duration : int</text><text fill="#000000" font-family="sans-serif" font-size="14" lengthAdjust="spacing" textLength="110.9678" x="99" y="737.4795">+remarks : text</text><text fill="#000000" font-family="sans-serif" font-size="14" lengthAdjust="spacing" textLength="163.249" x="99" y="753.7764">+created_at : datetime</text><line style="stroke:#181818;stroke-width:0.5;" x1="94" x2="280.6064" y1="761.0781" y2="761.0781"/></g><!--class Questions--><g id="elem_Questions"><rect codeLine="45" fill="#F1F1F1" height="178.375" id="Questions" rx="2.5" ry="2.5" style="stroke:#181818;stroke-width:0.5;" width="204.7871" x="7" y="829"/><ellipse cx="70.188" cy="845" fill="#ADD1B2" rx="11" ry="11" style="stroke:#181818;stroke-width:1;"/><path d="M73.1567,850.6406 Q72.5786,850.9375 71.938,851.0781 Q71.2974,851.2344 70.5942,851.2344 Q68.0942,851.2344 66.7661,849.5938 Q65.4536,847.9375 65.4536,844.8125 Q65.4536,841.6875 66.7661,840.0313 Q68.0942,838.375 70.5942,838.375 Q71.2974,838.375 71.938,838.5313 Q72.5942,838.6875 73.1567,838.9844 L73.1567,841.7031 Q72.5317,841.125 71.938,840.8594 Q71.3442,840.5781 70.7192,840.5781 Q69.3755,840.5781 68.688,841.6563 Q68.0005,842.7188 68.0005,844.8125 Q68.0005,846.9063 68.688,847.9844 Q69.3755,849.0469 70.7192,849.0469 Q71.3442,849.0469 71.938,848.7813 Q72.5317,848.5 73.1567,847.9219 L73.1567,850.6406 Z " fill="#000000"/><text fill="#000000" font-family="sans-serif" font-size="14" lengthAdjust="spacing" textLength="69.9111" x="90.688" y="849.8467">Questions</text><line style="stroke:#181818;stroke-width:0.5;" x1="8" x2="210.7871" y1="861" y2="861"/><text fill="#000000" font-family="sans-serif" font-size="14" lengthAdjust="spacing" textLength="56.376" x="13" y="877.9951">+id : int</text><text fill="#000000" font-family="sans-serif" font-size="14" lengthAdjust="spacing" textLength="92.374" x="13" y="894.292">+quiz_id : int</text><text fill="#000000" font-family="sans-serif" font-size="14" lengthAdjust="spacing" textLength="192.7871" x="13" y="910.5889">+question_statement : text</text><text fill="#000000" font-family="sans-serif" font-size="14" lengthAdjust="spacing" textLength="118.7129" x="13" y="926.8857">+option1 : string</text><text fill="#000000" font-family="sans-serif" font-size="14" lengthAdjust="spacing" textLength="118.7129" x="13" y="943.1826">+option2 : string</text><text fill="#000000" font-family="sans-serif" font-size="14" lengthAdjust="spacing" textLength="118.7129" x="13" y="959.4795">+option3 : string</text><text fill="#000000" font-family="sans-serif" font-size="14" lengthAdjust="spacing" textLength="118.7129" x="13" y="975.7764">+option4 : string</text><text fill="#000000" font-family="sans-serif" font-size="14" lengthAdjust="spacing" textLength="144.4434" x="13" y="992.0732">+correct_option : int</text><line style="stroke:#181818;stroke-width:0.5;" x1="8" x2="210.7871" y1="999.375" y2="999.375"/></g><!--class Scores--><g id="elem_Scores"><rect codeLine="56" fill="#F1F1F1" height="145.7813" id="Scores" rx="2.5" ry="2.5" style="stroke:#181818;stroke-width:0.5;" width="176.0625" x="247.5" y="845"/><ellipse cx="307.875" cy="861" fill="#ADD1B2" rx="11" ry="11" style="stroke:#181818;stroke-width:1;"/><path d="M310.8438,866.6406 Q310.2656,866.9375 309.625,867.0781 Q308.9844,867.2344 308.2813,867.2344 Q305.7813,867.2344 304.4531,865.5938 Q303.1406,863.9375 303.1406,860.8125 Q303.1406,857.6875 304.4531,856.0313 Q305.7813,854.375 308.2813,854.375 Q308.9844,854.375 309.625,854.5313 Q310.2813,854.6875 310.8438,854.9844 L310.8438,857.7031 Q310.2188,857.125 309.625,856.8594 Q309.0313,856.5781 308.4063,856.5781 Q307.0625,856.5781 306.375,857.6563 Q305.6875,858.7188 305.6875,860.8125 Q305.6875,862.9063 306.375,863.9844 Q307.0625,865.0469 308.4063,865.0469 Q309.0313,865.0469 309.625,864.7813 Q310.2188,864.5 310.8438,863.9219 L310.8438,866.6406 Z " fill="#000000"/><text fill="#000000" font-family="sans-serif" font-size="14" lengthAdjust="spacing" textLength="46.8125" x="328.375" y="865.8467">Scores</text><line style="stroke:#181818;stroke-width:0.5;" x1="248.5" x2="422.5625" y1="877" y2="877"/><text fill="#000000" font-family="sans-serif" font-size="14" lengthAdjust="spacing" textLength="56.376" x="253.5" y="893.9951">+id : int</text><text fill="#000000" font-family="sans-serif" font-size="14" lengthAdjust="spacing" textLength="93.9121" x="253.5" y="910.292">+user_id : int</text><text fill="#000000" font-family="sans-serif" font-size="14" lengthAdjust="spacing" textLength="92.374" x="253.5" y="926.5889">+quiz_id : int</text><text fill="#000000" font-family="sans-serif" font-size="14" lengthAdjust="spacing" textLength="81.5254" x="253.5" y="942.8857">+score : int</text><text fill="#000000" font-family="sans-serif" font-size="14" lengthAdjust="spacing" textLength="150.3906" x="253.5" y="959.1826">+total_questions : int</text><text fill="#000000" font-family="sans-serif" font-size="14" lengthAdjust="spacing" textLength="164.0625" x="253.5" y="975.4795">+timestamp : datetime</text><line style="stroke:#181818;stroke-width:0.5;" x1="248.5" x2="422.5625" y1="982.7813" y2="982.7813"/></g><!--link Users to Scores--><g id="link_Users_Scores"><path codeLine="65" d="M287.35,169.16 C292.11,188.6 296.57,209.43 299.5,229 C332.86,451.83 336.62,719.25 336.28,844.98 " fill="none" id="Users-Scores" style="stroke:#181818;stroke-width:1;"/><text fill="#000000" font-family="sans-serif" font-size="13" lengthAdjust="spacing" textLength="8.271" x="281.0602" y="189.1256">1</text><text fill="#000000" font-family="sans-serif" font-size="13" lengthAdjust="spacing" textLength="6.5" x="330.0736" y="833.7614">*</text></g><!--link Users to Subjects--><g id="link_Users_Subjects"><path codeLine="66" d="M236.93,169.14 C230.12,188.93 222.92,209.88 216.42,228.78 " fill="none" id="Users-Subjects" style="stroke:#181818;stroke-width:1;"/><text fill="#000000" font-family="sans-serif" font-size="13" lengthAdjust="spacing" textLength="8.271" x="226.1497" y="189.1038">1</text><text fill="#000000" font-family="sans-serif" font-size="13" lengthAdjust="spacing" textLength="6.5" x="212.5031" y="217.9286">*</text></g><!--link Subjects to Chapters--><g id="link_Subjects_Chapters"><path codeLine="67" d="M193.48,358.07 C193.17,377.34 192.83,398.51 192.52,417.79 " fill="none" id="Subjects-Chapters" style="stroke:#181818;stroke-width:1;"/><text fill="#000000" font-family="sans-serif" font-size="13" lengthAdjust="spacing" textLength="8.271" x="184.9008" y="378.4497">1</text><text fill="#000000" font-family="sans-serif" font-size="13" lengthAdjust="spacing" textLength="6.5" x="186.3172" y="406.9397">*</text></g><!--link Chapters to Quizzes--><g id="link_Chapters_Quizzes"><path codeLine="68" d="M190.25,547.05 C189.88,565.94 189.47,586.89 189.08,606.7 " fill="none" id="Chapters-Quizzes" style="stroke:#181818;stroke-width:1;"/><text fill="#000000" font-family="sans-serif" font-size="13" lengthAdjust="spacing" textLength="8.271" x="181.6442" y="567.4274">1</text><text fill="#000000" font-family="sans-serif" font-size="13" lengthAdjust="spacing" textLength="6.5" x="182.9933" y="595.8606">*</text></g><!--link Quizzes to Questions--><g id="link_Quizzes_Questions"><path codeLine="69" d="M160.11,769.06 C153.48,788.44 146.36,809.25 139.61,828.97 " fill="none" id="Quizzes-Questions" style="stroke:#181818;stroke-width:1;"/><text fill="#000000" font-family="sans-serif" font-size="13" lengthAdjust="spacing" textLength="8.271" x="149.3439" y="789.0167">1</text><text fill="#000000" font-family="sans-serif" font-size="13" lengthAdjust="spacing" textLength="6.5" x="135.8846" y="818.033">*</text></g><!--link Quizzes to Scores--><g id="link_Quizzes_Scores"><path codeLine="70" d="M239.47,769.06 C255.46,793.7 272.96,820.66 288.6,844.74 " fill="none" id="Quizzes-Scores" style="stroke:#181818;stroke-width:1;"/><text fill="#000000" font-family="sans-serif" font-size="13" lengthAdjust="spacing" textLength="8.271" x="235.7719" y="789.0167">1</text><text fill="#000000" font-family="sans-serif" font-size="13" lengthAdjust="spacing" textLength="6.5" x="277.7095" y="833.8744">*</text></g><!--SRC=[dLDDKyCW4BtpAvWSTJfZrPCtnvD7xNXc2DagDa0AYnzr_E-IaAGafTEEHzvZzxrzB6uZTSCjLrJKtBbxH2jBZ_0eZ5x97T0hGZg6lZYmZluGIY-fhEWTbHgxWm-4vWe2v4ArVktG9jHy6bjDqRMlQtPuUUjvBTTIS9H6JwdAb06eE49tv0BbHrjT6bC3r-HtyFSSpbb_Xt8LE65bCnKR6wry-Gu2_zKBuIjU51Q2vOgLtqdr07BiHqAfO2_yyCORF1BosS8kkcUJwXF2JrxkTldmK68z4nRHvbIXRShCccr3grGZzb30Ac-7rnrgB2XkDouNsr6ZuDecMQkjD9iXyJfp65efq9XgcIwxvNIu25xdm9iSU3lBnbZRfc-QPDRzPWKQZluXTc8QrrQdJsEGrsmxHf8-cWeWLyqinFY5YsL15mjQN1IzeGpUVm4o_eM47DQKZFkQaFqgaM6b9bJlD4T69ty0]--></g></svg>